<?xml version="1.0" encoding="utf-8"?>
<!-- Generator: Adobe Illustrator 16.0.0, SVG Export Plug-In . SVG Version: 6.00 Build 0)  -->
<!DOCTYPE svg PUBLIC "-//W3C//DTD SVG 1.1//EN" "http://www.w3.org/Graphics/SVG/1.1/DTD/svg11.dtd">
<svg version="1.1" id="iei_x5F_logo" xmlns="http://www.w3.org/2000/svg" xmlns:xlink="http://www.w3.org/1999/xlink" x="0px"
	 y="0px" width="200px" height="100px" viewBox="0 0 200 100" enable-background="new 0 0 200 100" xml:space="preserve">
<g>
	<g>
		<path fill="#FFFFFF" d="M19.958,83.729h2.777l-0.448,10.412h-2.776L19.958,83.729z"/>
		<path fill="#FFFFFF" d="M26.301,91.364c-0.013,0.194,0.032,0.358,0.134,0.492c0.102,0.135,0.231,0.201,0.387,0.201h5.553
			l-0.092,2.083h-7.219c-0.229,0-0.444-0.056-0.643-0.167c-0.199-0.111-0.37-0.259-0.512-0.444
			c-0.142-0.185-0.251-0.404-0.328-0.659c-0.077-0.255-0.107-0.525-0.092-0.813l0.275-6.247c0.008-0.287,0.061-0.558,0.158-0.813
			c0.097-0.254,0.225-0.474,0.383-0.659c0.158-0.185,0.341-0.333,0.549-0.444s0.427-0.166,0.656-0.166h7.219l-0.081,2.082h-5.553
			c-0.155,0-0.29,0.067-0.402,0.201c-0.112,0.135-0.175,0.299-0.188,0.493l-0.149,3.471L26.301,91.364z M26.902,89.976l0.092-2.083
			h5.564l-0.092,2.083H26.902z"/>
		<path fill="#FFFFFF" d="M33.842,83.729h2.777L36.17,94.141h-2.777L33.842,83.729z"/>
		<path fill="#FFFFFF" d="M44.393,83.729h2.776l-0.448,10.412h-2.777L44.393,83.729z"/>
		<path fill="#FFFFFF" d="M48.073,88.587c0.016-0.286,0.072-0.558,0.169-0.812c0.097-0.255,0.225-0.475,0.383-0.66
			c0.158-0.185,0.341-0.333,0.549-0.444c0.208-0.11,0.427-0.166,0.656-0.166h5.554c0.229,0,0.444,0.056,0.643,0.166
			c0.199,0.111,0.37,0.26,0.512,0.444c0.142,0.186,0.251,0.405,0.328,0.66c0.077,0.254,0.107,0.525,0.091,0.812l-0.241,5.554h-2.777
			l0.207-4.859c0.013-0.194-0.032-0.358-0.134-0.493c-0.102-0.134-0.231-0.201-0.386-0.201h-2.222c-0.155,0-0.29,0.067-0.402,0.201
			c-0.113,0.135-0.175,0.299-0.188,0.493l-0.207,4.859h-2.777L48.073,88.587z"/>
		<path fill="#FFFFFF" d="M64.178,88.587h-3.332l-0.115,2.777c-0.013,0.194,0.032,0.358,0.135,0.492
			c0.102,0.135,0.231,0.201,0.386,0.201h2.777l-0.092,2.083h-4.443c-0.229,0-0.444-0.056-0.643-0.167s-0.37-0.259-0.512-0.444
			c-0.142-0.185-0.251-0.404-0.328-0.659s-0.107-0.525-0.092-0.813l0.356-8.329h2.776l-0.115,2.776h3.332L64.178,88.587z"/>
		<path fill="#FFFFFF" d="M71.363,89.281c0.013-0.194-0.032-0.358-0.134-0.493c-0.102-0.134-0.231-0.201-0.387-0.201h-2.221
			c-0.155,0-0.29,0.067-0.402,0.201c-0.113,0.135-0.175,0.299-0.188,0.493l-0.081,2.083c-0.012,0.194,0.032,0.358,0.135,0.492
			c0.102,0.135,0.231,0.201,0.386,0.201h5.553l-0.092,2.083h-7.219c-0.229,0-0.444-0.056-0.643-0.167s-0.37-0.259-0.511-0.444
			c-0.142-0.185-0.251-0.404-0.328-0.659s-0.107-0.525-0.092-0.813l0.149-3.471c0.016-0.286,0.072-0.558,0.169-0.812
			c0.097-0.255,0.225-0.475,0.383-0.66c0.158-0.185,0.341-0.333,0.549-0.444c0.208-0.11,0.427-0.166,0.656-0.166H72.6
			c0.229,0,0.444,0.056,0.643,0.166c0.199,0.111,0.37,0.26,0.512,0.444c0.142,0.186,0.251,0.405,0.328,0.66
			c0.077,0.254,0.107,0.525,0.092,0.812l-0.115,2.777h-2.777L71.363,89.281z"/>
		<path fill="#FFFFFF" d="M81.359,89.281c0.012-0.194-0.033-0.358-0.134-0.493c-0.103-0.134-0.231-0.201-0.387-0.201h-2.221
			c-0.156,0-0.29,0.067-0.402,0.201c-0.112,0.135-0.175,0.299-0.188,0.493l-0.081,2.083c-0.013,0.194,0.032,0.358,0.135,0.492
			c0.102,0.135,0.231,0.201,0.386,0.201h2.221l-0.092,2.083h-3.887c-0.229,0-0.444-0.056-0.643-0.167s-0.37-0.259-0.512-0.444
			c-0.142-0.185-0.251-0.404-0.328-0.659s-0.107-0.525-0.092-0.813l0.149-3.471c0.015-0.286,0.072-0.558,0.169-0.812
			c0.097-0.255,0.225-0.475,0.383-0.66c0.158-0.185,0.341-0.333,0.549-0.444c0.208-0.11,0.427-0.166,0.657-0.166h5.553
			c0.229,0,0.444,0.056,0.643,0.166c0.199,0.111,0.37,0.26,0.512,0.444c0.142,0.186,0.251,0.405,0.328,0.66
			c0.077,0.254,0.107,0.525,0.092,0.812l-0.275,6.248c-0.008,0.286-0.063,0.558-0.164,0.812c-0.102,0.255-0.231,0.475-0.389,0.659
			c-0.158,0.186-0.341,0.334-0.549,0.444c-0.208,0.111-0.427,0.167-0.656,0.167h-7.23l0.092-2.082h5.564
			c0.155,0,0.29-0.067,0.402-0.201c0.112-0.135,0.175-0.299,0.188-0.493L81.359,89.281z"/>
		<path fill="#FFFFFF" d="M87.816,94.141H85.04l0.241-5.554c0.015-0.286,0.072-0.558,0.169-0.812
			c0.098-0.255,0.225-0.475,0.383-0.66c0.158-0.185,0.341-0.333,0.549-0.444c0.208-0.11,0.427-0.166,0.657-0.166h4.442l-0.092,2.082
			h-2.776c-0.156,0-0.29,0.067-0.402,0.201c-0.113,0.135-0.175,0.299-0.188,0.493L87.816,94.141z"/>
		<path fill="#FFFFFF" d="M98.574,89.281c0.012-0.194-0.033-0.358-0.134-0.493c-0.103-0.134-0.231-0.201-0.387-0.201h-2.221
			c-0.156,0-0.29,0.067-0.402,0.201c-0.112,0.135-0.175,0.299-0.188,0.493l-0.081,2.083c-0.013,0.194,0.032,0.358,0.134,0.492
			c0.103,0.135,0.231,0.201,0.387,0.201h2.221l-0.092,2.083h-3.887c-0.229,0-0.444-0.056-0.643-0.167
			c-0.199-0.111-0.37-0.259-0.512-0.444c-0.142-0.185-0.251-0.404-0.328-0.659s-0.107-0.525-0.092-0.813l0.149-3.471
			c0.015-0.286,0.072-0.558,0.169-0.812c0.097-0.255,0.225-0.475,0.383-0.66c0.158-0.185,0.341-0.333,0.549-0.444
			c0.208-0.11,0.427-0.166,0.657-0.166h5.553c0.229,0,0.444,0.056,0.643,0.166c0.199,0.111,0.37,0.26,0.512,0.444
			c0.142,0.186,0.251,0.405,0.328,0.66c0.076,0.254,0.106,0.525,0.091,0.812l-0.24,5.554h-2.777L98.574,89.281z"/>
		<path fill="#FFFFFF" d="M108.604,88.587h-3.332l-0.115,2.777c-0.013,0.194,0.032,0.358,0.135,0.492
			c0.103,0.135,0.231,0.201,0.387,0.201h2.776l-0.092,2.083h-4.442c-0.229,0-0.444-0.056-0.644-0.167s-0.369-0.259-0.512-0.444
			c-0.142-0.185-0.251-0.404-0.327-0.659c-0.077-0.255-0.107-0.525-0.092-0.813l0.356-8.329h2.776l-0.115,2.776h3.332
			L108.604,88.587z"/>
		<path fill="#FFFFFF" d="M109.807,86.505h2.777l-0.333,7.636h-2.777L109.807,86.505z M112.608,85.824h-2.776l0.09-2.096h2.776
			L112.608,85.824z"/>
		<path fill="#FFFFFF" d="M113.603,88.587c0.016-0.286,0.072-0.558,0.169-0.812c0.098-0.255,0.226-0.475,0.383-0.66
			c0.158-0.185,0.342-0.333,0.55-0.444c0.208-0.11,0.427-0.166,0.656-0.166h5.554c0.229,0,0.443,0.056,0.643,0.166
			c0.199,0.111,0.369,0.26,0.512,0.444c0.142,0.186,0.251,0.405,0.327,0.66c0.077,0.254,0.107,0.525,0.092,0.812l-0.148,3.471
			c-0.016,0.287-0.072,0.558-0.17,0.813s-0.225,0.475-0.383,0.659c-0.158,0.186-0.341,0.333-0.549,0.444s-0.428,0.167-0.657,0.167
			h-5.553c-0.229,0-0.444-0.056-0.644-0.167s-0.369-0.259-0.512-0.444c-0.142-0.185-0.251-0.404-0.327-0.659
			c-0.077-0.255-0.107-0.525-0.092-0.813L113.603,88.587z M116.398,91.856c0.103,0.135,0.231,0.201,0.387,0.201h2.221
			c0.156,0,0.29-0.066,0.402-0.201c0.113-0.134,0.175-0.298,0.188-0.492l0.081-2.083c0.013-0.194-0.032-0.358-0.135-0.493
			c-0.103-0.134-0.23-0.201-0.387-0.201h-2.221c-0.156,0-0.29,0.067-0.402,0.201c-0.112,0.135-0.175,0.299-0.188,0.493l-0.081,2.083
			C116.252,91.559,116.297,91.723,116.398,91.856z"/>
		<path fill="#FFFFFF" d="M123.599,88.587c0.015-0.286,0.071-0.558,0.169-0.812c0.098-0.255,0.225-0.475,0.383-0.66
			c0.158-0.185,0.341-0.333,0.549-0.444c0.209-0.11,0.428-0.166,0.657-0.166h5.553c0.229,0,0.444,0.056,0.644,0.166
			c0.199,0.111,0.369,0.26,0.512,0.444c0.142,0.186,0.251,0.405,0.327,0.66c0.077,0.254,0.107,0.525,0.092,0.812l-0.241,5.554
			h-2.776l0.207-4.859c0.012-0.194-0.033-0.358-0.135-0.493c-0.103-0.134-0.23-0.201-0.387-0.201h-2.221
			c-0.156,0-0.29,0.067-0.402,0.201c-0.112,0.135-0.175,0.299-0.188,0.493l-0.207,4.859h-2.776L123.599,88.587z"/>
		<path fill="#FFFFFF" d="M143.055,91.856c0.102,0.135,0.23,0.201,0.387,0.201h2.221c0.155,0,0.289-0.066,0.402-0.201
			c0.112-0.134,0.175-0.298,0.188-0.492l0.023-0.694h2.776l-0.058,1.388c-0.016,0.287-0.072,0.558-0.169,0.813
			c-0.098,0.255-0.226,0.475-0.384,0.659c-0.157,0.186-0.341,0.333-0.549,0.444s-0.427,0.167-0.656,0.167h-5.553
			c-0.23,0-0.444-0.056-0.644-0.167s-0.37-0.259-0.512-0.444c-0.142-0.185-0.251-0.404-0.328-0.659
			c-0.076-0.255-0.106-0.525-0.092-0.813l0.276-6.247c0.008-0.287,0.061-0.558,0.158-0.813c0.097-0.254,0.225-0.474,0.383-0.659
			c0.157-0.185,0.341-0.333,0.549-0.444s0.427-0.166,0.656-0.166h5.554c0.229,0,0.443,0.055,0.643,0.166s0.37,0.26,0.512,0.444
			c0.142,0.186,0.251,0.405,0.328,0.659c0.076,0.255,0.111,0.525,0.103,0.813l-0.068,1.389h-2.776l0.034-0.694
			c0.012-0.194-0.033-0.358-0.135-0.493c-0.103-0.134-0.231-0.201-0.387-0.201h-2.221c-0.156,0-0.29,0.067-0.402,0.201
			c-0.113,0.135-0.176,0.299-0.188,0.493l-0.207,4.859C142.907,91.559,142.952,91.723,143.055,91.856z"/>
		<path fill="#FFFFFF" d="M150.254,88.587c0.016-0.286,0.072-0.558,0.17-0.812c0.097-0.255,0.225-0.475,0.383-0.66
			c0.158-0.185,0.341-0.333,0.549-0.444c0.208-0.11,0.427-0.166,0.656-0.166h5.554c0.229,0,0.443,0.056,0.643,0.166
			c0.199,0.111,0.37,0.26,0.512,0.444c0.142,0.186,0.251,0.405,0.328,0.66c0.076,0.254,0.107,0.525,0.092,0.812l-0.149,3.471
			c-0.016,0.287-0.072,0.558-0.169,0.813c-0.098,0.255-0.226,0.475-0.384,0.659c-0.157,0.186-0.341,0.333-0.549,0.444
			s-0.427,0.167-0.656,0.167h-5.554c-0.229,0-0.443-0.056-0.643-0.167s-0.37-0.259-0.512-0.444
			c-0.142-0.185-0.251-0.404-0.328-0.659c-0.076-0.255-0.107-0.525-0.092-0.813L150.254,88.587z M153.051,91.856
			c0.102,0.135,0.23,0.201,0.386,0.201h2.222c0.155,0,0.289-0.066,0.402-0.201c0.112-0.134,0.175-0.298,0.188-0.492l0.08-2.083
			c0.013-0.194-0.032-0.358-0.134-0.493c-0.103-0.134-0.231-0.201-0.387-0.201h-2.222c-0.155,0-0.289,0.067-0.401,0.201
			c-0.113,0.135-0.176,0.299-0.188,0.493l-0.08,2.083C152.903,91.559,152.948,91.723,153.051,91.856z"/>
		<path fill="#FFFFFF" d="M162.785,94.141h-2.776l0.241-5.554c0.016-0.286,0.072-0.558,0.169-0.812
			c0.098-0.255,0.226-0.475,0.384-0.66c0.158-0.185,0.341-0.333,0.549-0.444c0.208-0.11,0.427-0.166,0.656-0.166h4.442l-0.092,2.082
			h-2.776c-0.155,0-0.289,0.067-0.402,0.201c-0.112,0.135-0.175,0.299-0.188,0.493L162.785,94.141z"/>
		<path fill="#FFFFFF" d="M169.879,96.917h-2.776l0.367-8.33c0.015-0.286,0.071-0.558,0.169-0.812
			c0.098-0.255,0.225-0.475,0.383-0.66c0.158-0.185,0.341-0.333,0.55-0.444c0.208-0.11,0.427-0.166,0.656-0.166h5.553
			c0.229,0,0.444,0.056,0.644,0.166c0.199,0.111,0.369,0.26,0.512,0.444c0.142,0.186,0.251,0.405,0.327,0.66
			c0.077,0.254,0.107,0.525,0.092,0.812l-0.149,3.471c-0.016,0.287-0.071,0.558-0.169,0.813s-0.225,0.475-0.383,0.659
			c-0.158,0.186-0.341,0.333-0.55,0.444c-0.208,0.111-0.427,0.167-0.656,0.167h-3.887l0.092-2.083h2.221
			c0.156,0,0.29-0.066,0.402-0.201c0.112-0.134,0.175-0.298,0.188-0.492l0.081-2.083c0.013-0.194-0.032-0.358-0.135-0.493
			c-0.103-0.134-0.23-0.201-0.387-0.201h-2.221c-0.156,0-0.29,0.067-0.402,0.201c-0.112,0.135-0.176,0.299-0.188,0.493
			L169.879,96.917z"/>
		<path fill="#FFFFFF" d="M177.316,92.058h1.666l-0.092,2.083h-1.666L177.316,92.058z"/>
	</g>
	<path fill="#FFFFFF" d="M151.378,68.382l-0.194,0.007l-0.195,0.007l-0.192,0.027l-0.188,0.037l-0.183,0.04l-0.176,0.054
		l-0.183,0.059l-0.167,0.063l-0.172,0.077l-0.162,0.082l-0.165,0.092l-0.152,0.099l-0.146,0.109l-0.145,0.11l-0.141,0.118
		l-0.131,0.123l-0.123,0.13l-0.118,0.135l-0.112,0.145l-0.104,0.145l-0.1,0.154l-0.09,0.157l-0.092,0.163l-0.077,0.165l-0.061,0.174
		l-0.065,0.174l-0.05,0.174l-0.041,0.185l-0.035,0.188l-0.025,0.186l-0.011,0.191l-0.008,0.194l0.008,0.198l0.011,0.186l0.025,0.19
		l0.035,0.184l0.041,0.185l0.05,0.176l0.065,0.178l0.061,0.169l0.077,0.168l0.092,0.156l0.09,0.161l0.1,0.154l0.104,0.147
		l0.112,0.141l0.118,0.139l0.123,0.13l0.131,0.121l0.141,0.118l0.145,0.113l0.146,0.106l0.152,0.1l0.165,0.091l0.162,0.081
		l0.172,0.077l0.167,0.065l0.183,0.067l0.176,0.048l0.183,0.041l0.188,0.03l0.192,0.026l0.195,0.011l0.194,0.004l0.194-0.004
		l0.188-0.011l0.196-0.026l0.184-0.03l0.184-0.041l0.179-0.048l0.179-0.067l0.173-0.065l0.162-0.077l0.162-0.081l0.161-0.091
		l0.157-0.1l0.146-0.106l0.148-0.113l0.131-0.118l0.134-0.121l0.131-0.13l0.112-0.139l0.117-0.141l0.105-0.147l0.103-0.154
		l0.09-0.161l0.078-0.156l0.084-0.168l0.065-0.169l0.057-0.178l0.056-0.176l0.041-0.185l0.034-0.184l0.021-0.19l0.019-0.186
		l0.005-0.198l-0.005-0.194l-0.019-0.191l-0.021-0.186l-0.034-0.188l-0.041-0.185l-0.056-0.174l-0.057-0.174l-0.065-0.174
		l-0.084-0.165l-0.078-0.163l-0.09-0.157l-0.103-0.154l-0.105-0.145l-0.117-0.145l-0.112-0.135l-0.131-0.13l-0.134-0.123
		l-0.131-0.118l-0.148-0.11l-0.146-0.109l-0.157-0.099l-0.161-0.092l-0.162-0.082l-0.162-0.077l-0.173-0.063l-0.179-0.059
		l-0.179-0.054l-0.184-0.04l-0.184-0.037l-0.196-0.027l-0.188-0.007L151.378,68.382L151.378,68.382z M151.378,67.403l0.243,0.002
		l0.244,0.019l0.231,0.029l0.246,0.041l0.224,0.053l0.231,0.067l0.219,0.075l0.222,0.081l0.21,0.097l0.204,0.105l0.197,0.117
		l0.198,0.127l0.187,0.127l0.183,0.142l0.178,0.151l0.162,0.158l0.16,0.168l0.147,0.172l0.146,0.172l0.141,0.191l0.108,0.188
		l0.122,0.205l0.105,0.197l0.1,0.214l0.083,0.213l0.076,0.227l0.07,0.225l0.054,0.23l0.043,0.229l0.024,0.233l0.025,0.244v0.243
		v0.239l-0.025,0.247l-0.024,0.234l-0.043,0.236l-0.054,0.223l-0.07,0.229l-0.076,0.225l-0.083,0.21l-0.1,0.216l-0.105,0.199
		l-0.122,0.198l-0.108,0.194l-0.141,0.188l-0.146,0.176l-0.147,0.173l-0.16,0.167l-0.162,0.155l-0.178,0.151l-0.183,0.141
		l-0.187,0.135l-0.198,0.121l-0.197,0.118l-0.204,0.106l-0.21,0.091l-0.222,0.08l-0.219,0.081l-0.231,0.063l-0.224,0.059
		l-0.246,0.039l-0.231,0.033l-0.244,0.013l-0.243,0.009l-0.253-0.009l-0.24-0.013l-0.241-0.033l-0.227-0.039l-0.234-0.059
		l-0.231-0.063l-0.224-0.081l-0.214-0.08l-0.215-0.091l-0.207-0.106l-0.2-0.118l-0.189-0.121l-0.192-0.135l-0.178-0.141
		l-0.171-0.151l-0.17-0.155l-0.152-0.167l-0.156-0.173l-0.14-0.176l-0.138-0.188l-0.126-0.194l-0.121-0.198l-0.098-0.199
		l-0.105-0.216l-0.081-0.21l-0.068-0.225l-0.065-0.229l-0.059-0.223l-0.038-0.236l-0.038-0.234l-0.014-0.247l-0.01-0.239l0.01-0.243
		l0.014-0.244l0.038-0.233l0.038-0.229l0.059-0.23l0.065-0.225l0.068-0.227l0.081-0.213l0.105-0.214l0.098-0.197l0.121-0.205
		l0.126-0.188l0.138-0.191l0.14-0.172l0.156-0.172l0.152-0.168l0.17-0.158l0.171-0.151l0.178-0.142l0.192-0.127l0.189-0.127
		l0.2-0.117l0.207-0.105l0.215-0.097l0.214-0.081l0.224-0.075l0.231-0.067l0.234-0.053l0.227-0.041l0.241-0.029l0.24-0.019
		L151.378,67.403L151.378,67.403z M150.249,71.77h0.772h0.169l0.161-0.01h0.142l0.128-0.009l0.104-0.006l0.086-0.016l0.076-0.01
		l0.052-0.012l0.043-0.016l0.043-0.027l0.054-0.016l0.025-0.03l0.036-0.025l0.031-0.034l0.034-0.032l0.024-0.036l0.028-0.036
		l0.015-0.046l0.028-0.041l0.005-0.054l0.018-0.043l0.014-0.054v-0.051l0.005-0.052l-0.005-0.069l-0.014-0.062l-0.006-0.049
		l-0.017-0.052l-0.02-0.059l-0.023-0.043l-0.028-0.041l-0.024-0.043l-0.044-0.041l-0.042-0.031l-0.041-0.025l-0.047-0.03
		l-0.05-0.027l-0.052-0.016l-0.06-0.021l-0.063-0.011l-0.092-0.008l-0.161-0.003l-0.221-0.007h-0.272h-0.813V71.77L150.249,71.77z
		 M149.212,74.699v-5.081h2.18h0.198l0.183,0.011l0.167,0.01l0.157,0.017l0.151,0.022l0.12,0.02l0.116,0.031l0.103,0.024
		l0.088,0.039l0.092,0.051l0.068,0.048l0.083,0.055l0.077,0.064l0.058,0.078l0.068,0.069l0.058,0.088l0.06,0.087l0.04,0.097
		l0.039,0.094l0.036,0.101l0.022,0.099l0.018,0.104l0.007,0.11v0.11v0.136l-0.021,0.133l-0.019,0.13l-0.044,0.117l-0.029,0.063
		l-0.021,0.057l-0.029,0.061l-0.025,0.052l-0.034,0.055l-0.031,0.043l-0.045,0.045l-0.036,0.053l-0.05,0.045l-0.047,0.041
		l-0.04,0.044l-0.05,0.039l-0.066,0.033l-0.047,0.04l-0.063,0.033l-0.061,0.028l-0.14,0.055l-0.135,0.049l-0.158,0.035l-0.151,0.031
		l0.151,0.099l0.148,0.097l0.065,0.058l0.065,0.057l0.057,0.052l0.069,0.06l0.046,0.065l0.063,0.076l0.074,0.086l0.057,0.094
		l0.162,0.234l0.181,0.267l0.622,0.994h-1.232l-0.756-1.104l-0.181-0.272l-0.152-0.213l-0.12-0.162l-0.097-0.099l-0.067-0.072
		l-0.073-0.058l-0.078-0.048l-0.086-0.031l-0.092-0.027l-0.118-0.016l-0.145-0.016l-0.162-0.005h-0.211v2.122H149.212
		L149.212,74.699z"/>
	<path fill="#FFFFFF" d="M56.338,26.279H43.325c-1.748,0-3.164,1.418-3.164,3.165v44.27c0,1.749,1.416,3.164,3.164,3.164h13.014
		c1.749,0,3.166-1.415,3.166-3.164v-44.27C59.504,27.697,58.087,26.279,56.338,26.279L56.338,26.279z"/>
	<path fill="#FFFFFF" d="M56.338,6.73H43.325c-1.748,0-3.164,1.416-3.164,3.164v10.155c0,1.748,1.416,3.164,3.164,3.164h13.014
		c1.749,0,3.166-1.416,3.166-3.164V9.894C59.504,8.146,58.087,6.73,56.338,6.73L56.338,6.73z"/>
	<path fill="#FFFFFF" d="M66.98,11.908v59.791c0,2.861,2.318,5.179,5.179,5.179h40.601V58.045H86.323v-6.466h26.438V32.745H86.323
		v-6.466h27.144V6.73H72.16C69.299,6.73,66.98,9.048,66.98,11.908L66.98,11.908z"/>
	<path fill="#FFFFFF" d="M131.171,4.085c-6.579,0-11.907,4.977-11.907,11.114c0,6.135,5.328,11.111,11.907,11.111
		c6.576,0,11.906-4.976,11.906-11.111C143.077,9.062,137.747,4.085,131.171,4.085L131.171,4.085z"/>
	<path fill="#FFFFFF" d="M138.252,32.745h-14.165c-1.428,0-2.587,1.161-2.587,2.589v38.955c0,1.43,1.159,2.589,2.587,2.589h14.165
		c1.428,0,2.586-1.159,2.586-2.589V35.334C140.838,33.906,139.68,32.745,138.252,32.745L138.252,32.745z"/>
</g>
</svg>
