<?xml version="1.0" encoding="utf-8"?>
<!-- Generator: Adobe Illustrator 16.0.0, SVG Export Plug-In . SVG Version: 6.00 Build 0)  -->
<!DOCTYPE svg PUBLIC "-//W3C//DTD SVG 1.1//EN" "http://www.w3.org/Graphics/SVG/1.1/DTD/svg11.dtd">
<svg version="1.1" id="nnz_x5F_logo" xmlns="http://www.w3.org/2000/svg" xmlns:xlink="http://www.w3.org/1999/xlink" x="0px"
	 y="0px" width="300px" height="85.5px" viewBox="0 0 300 85.5" enable-background="new 0 0 300 85.5" xml:space="preserve">
<g>
	<path fill-rule="evenodd" clip-rule="evenodd" fill="#231F20" d="M23.318,80.288v-8.844h-1.651v8.844H23.318L23.318,80.288z
		 M25.9,73.733h-0.908v6.555h0.931v-4.387c0-0.471,0.048-0.849,0.425-1.189c0.248-0.237,0.578-0.365,0.92-0.365
		c0.754,0,0.979,0.46,0.979,1.142v4.8h0.931V75.23c0-1.156-0.637-1.676-1.615-1.676c-0.708,0-1.191,0.33-1.663,0.897V73.733
		L25.9,73.733z M34.094,77.718c0,0.743-0.271,1.957-1.238,1.957c-1.274,0-1.321-1.284-1.321-2.7c0-2.017,0.507-2.628,1.286-2.628
		c1.25,0,1.273,1.66,1.273,2.558V77.718L34.094,77.718z M34.094,74.403h-0.023c-0.437-0.564-0.838-0.849-1.509-0.849
		c-1.404,0-2.041,1.521-1.97,3.443c0.024,0.579-0.142,3.47,1.922,3.47c0.791,0,1.191-0.262,1.592-1.04h0.023v0.86h0.896v-8.844
		h-0.932V74.403L34.094,74.403z M39.991,80.288h0.932v-6.555h-0.932v4.208c0,0.379-0.059,0.825-0.271,1.157
		c-0.259,0.376-0.672,0.576-1.121,0.576c-0.66,0-0.837-0.295-0.837-0.85v-5.092H36.83v5.057c0,1.157,0.602,1.678,1.58,1.678
		c0.637,0,1.238-0.369,1.557-1.04h0.024V80.288L39.991,80.288z M46.299,75.488c0.024-1.344-0.73-1.934-2.028-1.934
		c-1.132,0-1.922,0.72-1.922,1.852c0,1.144,0.589,1.486,1.603,1.862c0.673,0.284,1.616,0.365,1.616,1.298
		c0,0.803-0.495,1.108-1.25,1.108c-0.873,0-1.143-0.495-1.108-1.298h-0.884c0,0.448-0.023,0.884,0.366,1.405
		c0.342,0.495,1.049,0.697,1.626,0.686c1.345,0.012,2.217-0.77,2.217-2.021c0-1.225-0.944-1.46-1.886-1.887
		c-0.637-0.271-1.333-0.376-1.333-1.225c0-0.684,0.377-0.989,1.037-0.989c0.79,0,1.073,0.365,1.038,1.142H46.299L46.299,75.488z
		 M48.988,71.952h-0.92v1.781h-0.908v0.789h0.908v4.692c0,0.991,0.413,1.086,0.967,1.073h1.025v-0.79h-0.625
		c-0.519,0-0.437-0.283-0.437-0.508v-4.468h1.085v-0.789h-1.097V71.952L48.988,71.952z M52.183,73.733h-0.896v6.555h0.932v-3.974
		c0-1.191,0.708-1.946,1.91-1.732V73.66c-0.979-0.081-1.532,0.284-1.922,1.146h-0.023V73.733L52.183,73.733z M56.039,80.288v-6.555
		h-0.932v6.555H56.039L56.039,80.288z M56.039,72.623v-1.179h-0.932v1.179H56.039L56.039,72.623z M60.26,78.342
		c0,1.063-0.778,1.333-1.132,1.333c-0.754,0-0.919-0.425-0.919-1.084c0-0.449,0.141-0.931,0.578-1.133
		c0.496-0.235,1.014-0.436,1.474-0.708V78.342L60.26,78.342z M61.794,79.604c-0.13,0.011-0.272,0.023-0.401-0.012
		c-0.188-0.095-0.165-0.332-0.165-0.494v-3.763c0-0.153,0.165-1.781-1.781-1.781c-1.321,0-1.993,0.59-1.945,1.946h0.837
		c-0.012-0.768,0.105-1.154,0.955-1.154c0.755,0,1.038,0.281,1.038,1.024c0,0.343,0.023,0.603-0.177,0.754
		c-0.118,0.095-1.438,0.59-1.969,0.827c-0.908,0.4-0.944,1.344-0.944,1.59c0,1.191,0.377,1.926,1.687,1.926
		c0.625,0,1.226-0.485,1.451-1.063h0.023c0.094,0.896,0.389,0.97,1.179,0.932c0.07-0.021,0.141-0.035,0.212-0.048V79.604
		L61.794,79.604z M63.892,80.288v-8.844h-0.932v8.844H63.892L63.892,80.288z M67.182,72.741h0.754c0.932,0,1.333,0.154,1.333,1.168
		c0,1.073-0.483,1.379-1.203,1.379h-0.884V72.741L67.182,72.741z M67.182,80.288v-3.703h1.108c0.636,0.014,1.332-0.116,1.851-0.53
		c0.625-0.494,0.826-1.343,0.826-2.1c0-1.238-0.484-2.511-2.063-2.511h-3.372v8.844H67.182L67.182,80.288z M75.66,77.139
		c-0.035,0.567,0.07,2.03-0.836,2.03c-1.133,0-1.191-1.192-1.191-1.922v-2.454c0-0.684-0.106-2.228,1.191-2.228
		c0.813,0,0.754,1.06,0.825,1.627h1.627c0.011-0.224-0.012-0.448-0.036-0.673c-0.118-1.508-0.943-2.265-2.417-2.286
		c-2.642,0-2.818,1.673-2.89,3.927v1.26c0,2.359,0.177,4.081,2.89,4.081c1.838,0,2.381-1.24,2.463-2.854
		c0.012-0.165,0.024-0.344,0.036-0.509H75.66L75.66,77.139z"/>
	<polygon fill-rule="evenodd" clip-rule="evenodd" fill="#0072B4" points="38.76,5.409 22.305,5.409 22.269,21.75 26.261,30.363 
		26.227,67.98 38.469,67.98 38.484,39.664 55.92,67.98 68.162,67.98 68.323,30.363 72.11,21.339 72.073,5.409 56.019,5.409 
		55.983,48.998 38.687,21.189 38.76,5.409 	"/>
	<path fill-rule="evenodd" clip-rule="evenodd" fill="#231F20" d="M73.514,5.726c27.995-3.247,17.993,24.818-4.256,40.825
		c0-0.999,0.106-1.995,0.106-2.993c4.42-2.734,12.772-11.219,16.513-19.498c4.303-9.521,4.192-17.724-12.256-16.196
		C73.585,7.08,73.55,6.509,73.514,5.726L73.514,5.726z M41.759,5.284h11.474v34.648L41.759,20.943V5.284L41.759,5.284z
		 M22.839,26.274c0.571,0.571,0.609,1.356,1.18,1.928c-30.967,28.083-12.97,37.89,1.056,35.302c0.082,1.063,0.025,1.313,0.106,2.373
		C-2.197,68.019-0.666,45.839,22.839,26.274L22.839,26.274z M41.052,68.029l-0.002-20.019l12.032,20.019H41.052L41.052,68.029z"/>
	<path fill-rule="evenodd" clip-rule="evenodd" fill="#0072B4" d="M112.292,33.827V22.085h6.709v11.742h4.794V8.151h-4.794v10.167
		h-6.709V8.151h-4.793v25.675H112.292L112.292,33.827z M147.631,33.827V8.151h-4.965l-3.73,9.346
		c-1.233,2.979-2.26,6.025-3.424,10.202h-0.068c0.171-2.328,0.342-4.828,0.479-7.292c0.136-2.465,0.239-4.93,0.239-7.224V8.151
		h-4.792v25.675h4.999l3.731-9.141c1.267-3.046,2.293-6.162,3.423-10.202h0.068c-0.171,2.123-0.376,4.725-0.513,7.326
		c-0.137,2.568-0.24,5.136-0.24,7.19v4.826H147.631L147.631,33.827z M168.592,33.827v-3.765h-8.696v-7.908h8.012v-3.766h-8.012
		v-6.47h8.696V8.151h-13.488v25.675H168.592L168.592,33.827z M180.104,33.827V22.085h6.709v11.742h4.794V8.151h-4.794v10.167h-6.709
		V8.151h-4.793v25.675H180.104L180.104,33.827z M208.699,30.062h-4.726V8.151h-4.792v25.675h23.826V8.151h-4.792v21.91h-4.725V8.151
		h-4.792V30.062L208.699,30.062z M233.768,33.827l1.268-6.504h5.614l1.266,6.504h5.137l-5.82-25.675h-6.471l-6.128,25.675H233.768
		L233.768,33.827z M237.225,16.265c0.241-1.198,0.343-2.362,0.479-3.561c0.035-0.582,0.104-1.164,0.172-1.711h0.067
		c0.068,0.547,0.138,1.129,0.172,1.711c0.138,1.198,0.24,2.363,0.48,3.561l1.301,7.292h-4.109L237.225,16.265L237.225,16.265z
		 M257.434,33.827V22.085h6.709v11.742h4.794V8.151h-4.794v10.167h-6.709V8.151h-4.794v25.675H257.434L257.434,33.827z
		 M294.82,33.851v-3.789h-2.047V8.151h-4.793v21.91h-6.71V8.151h-4.793v25.675h13.318L294.82,33.851L294.82,33.851z M108.665,68.251
		l1.267-6.504h5.615l1.267,6.504h5.135l-5.821-25.676h-6.47l-6.127,25.676H108.665L108.665,68.251z M112.123,50.689
		c0.239-1.198,0.342-2.361,0.479-3.561c0.034-0.582,0.103-1.165,0.171-1.712h0.068c0.068,0.547,0.137,1.13,0.171,1.712
		c0.137,1.199,0.24,2.362,0.479,3.561l1.301,7.291h-4.108L112.123,50.689L112.123,50.689z M129.275,64.484v-7.771h1.848
		c2.978,0,3.526,1.163,3.526,3.937c0,1.302-0.172,2.979-1.472,3.562c-0.856,0.376-1.883,0.272-2.876,0.272H129.275L129.275,64.484z
		 M129.275,52.947v-6.605h2.225c2.191,0.068,2.601,1.027,2.601,2.942c0,1.233-0.068,2.124-0.513,2.775
		c-0.754,0.956-2.26,0.888-3.424,0.888H129.275L129.275,52.947z M132.937,68.251c3.423,0,5.272-1.369,6.299-4.621
		c0.274-1.027,0.343-2.089,0.343-3.151c0-3.318-1.027-5.578-3.731-5.954v-0.07c2.602-0.957,3.081-3.149,3.081-5.374
		c0-1.746-0.171-3.218-1.267-4.622c-1.37-1.746-3.39-1.883-5.443-1.883h-7.736v25.676H132.937L132.937,68.251z M141.257,46.342
		h5.615v21.909h4.792V46.342h5.581v-3.767h-15.988V46.342L141.257,46.342z M159.265,57.021c0,6.848,0.513,11.853,8.387,11.853
		c7.873,0,8.388-5.005,8.388-11.853v-3.663c-0.206-6.537-0.72-11.399-8.388-11.399c-7.669,0-8.183,4.862-8.387,11.399V57.021
		L159.265,57.021z M164.194,52.299c0-1.988-0.308-6.472,3.458-6.472c3.56,0,3.457,4.555,3.457,6.608v6.572
		c0,2.465-0.033,5.991-3.457,5.991c-3.286,0-3.458-3.458-3.458-5.58V52.299L164.194,52.299z M185.18,60.171
		c0-5.1-0.103-10.201-0.412-15.302h0.172l5.032,23.382h2.91l5.136-23.382h0.067c-0.308,5.101-0.411,10.202-0.411,15.302v8.08h4.793
		V42.575h-7.601l-2.567,11.914c-0.342,1.678-0.513,3.388-0.752,5.921h-0.068c-0.206-1.985-0.479-3.971-0.892-5.921l-2.566-11.914
		h-7.634v25.676h4.793V60.171L185.18,60.171z M210.17,68.251l1.267-6.504h5.615l1.266,6.504h5.136l-5.821-25.676h-6.469
		l-6.128,25.676H210.17L210.17,68.251z M213.628,50.689c0.238-1.198,0.341-2.361,0.479-3.561c0.034-0.582,0.104-1.165,0.171-1.712
		h0.069c0.068,0.547,0.137,1.13,0.172,1.712c0.136,1.199,0.239,2.362,0.479,3.561l1.3,7.291h-4.107L213.628,50.689L213.628,50.689z
		 M221.809,46.342h5.616v21.909h4.792V46.342h5.58v-3.767h-15.988V46.342L221.809,46.342z M256.935,68.251V42.575h-4.964
		l-3.733,9.346c-1.23,2.979-2.259,6.024-3.422,10.202h-0.068c0.17-2.326,0.342-4.826,0.479-7.291s0.24-4.93,0.24-7.226v-5.031
		h-4.792v25.676h4.997l3.732-9.141c1.266-3.047,2.293-6.163,3.422-10.202h0.068c-0.171,2.124-0.376,4.726-0.514,7.326
		c-0.136,2.568-0.239,5.137-0.239,7.19v4.826H256.935L256.935,68.251z M266.383,68.251V60.89l1.678-2.772l4.519,10.134h5.408
		l-6.641-14.652l6.332-11.023h-5.407l-2.809,5.238c-1.026,1.882-2.259,4.143-3.012,6.161h-0.068V42.575h-4.793v25.676H266.383
		L266.383,68.251z M282.472,68.251l1.267-6.504h5.615l1.266,6.504h5.137l-5.82-25.676h-6.47l-6.129,25.676H282.472L282.472,68.251z
		 M285.93,50.689c0.239-1.198,0.343-2.361,0.479-3.561c0.034-0.582,0.103-1.165,0.172-1.712h0.068
		c0.069,0.547,0.138,1.13,0.171,1.712c0.138,1.199,0.24,2.362,0.479,3.561l1.301,7.291h-4.108L285.93,50.689L285.93,50.689z"/>
	<polygon fill-rule="evenodd" clip-rule="evenodd" fill="#231F20" points="107.174,37.491 294.704,37.491 294.704,38.819 
		107.174,38.819 107.174,37.491 	"/>
</g>
</svg>
