<?xml version="1.0" encoding="utf-8"?>
<!-- Generator: Adobe Illustrator 16.0.0, SVG Export Plug-In . SVG Version: 6.00 Build 0)  -->
<!DOCTYPE svg PUBLIC "-//W3C//DTD SVG 1.1//EN" "http://www.w3.org/Graphics/SVG/1.1/DTD/svg11.dtd">
<svg version="1.1" id="Layer_1" xmlns="http://www.w3.org/2000/svg" xmlns:xlink="http://www.w3.org/1999/xlink" x="0px" y="0px"
	 width="30px" height="30px" viewBox="0 0 30 30" enable-background="new 0 0 30 30" xml:space="preserve">
<g>
	<g>
		<path fill="#FC3C3C" d="M28.423,1.611H1.577C0.708,1.611,0,2.318,0,3.188v19.329c0,0.87,0.708,1.577,1.577,1.577h10.168
			l-0.411,3.289H9.631c-0.278,0-0.503,0.225-0.503,0.503s0.226,0.503,0.503,0.503h10.738c0.277,0,0.504-0.225,0.504-0.503
			s-0.227-0.503-0.504-0.503h-1.703l-0.411-3.289h10.168c0.87,0,1.577-0.707,1.577-1.577V3.188C30,2.318,29.293,1.611,28.423,1.611z
			 M12.349,27.383l0.411-3.289h4.48l0.411,3.289H12.349z M28.993,22.517c0,0.315-0.256,0.571-0.57,0.571H1.577
			c-0.314,0-0.57-0.256-0.57-0.571V3.188c0-0.314,0.256-0.57,0.57-0.57h26.846c0.314,0,0.57,0.256,0.57,0.57V22.517z"/>
	</g>
</g>
<g>
	<g>
		<path fill="#FC3C3C" d="M23.591,3.758H2.651c-0.278,0-0.503,0.226-0.503,0.503v16.645c0,0.277,0.226,0.504,0.503,0.504h1.611
			c0.278,0,0.503-0.227,0.503-0.504c0-0.278-0.225-0.504-0.503-0.504H3.154V4.765h20.437c0.278,0,0.503-0.226,0.503-0.503
			S23.869,3.758,23.591,3.758z"/>
	</g>
</g>
<g>
	<g>
		<path fill="#FC3C3C" d="M27.35,3.758h-1.611c-0.277,0-0.504,0.226-0.504,0.503s0.227,0.503,0.504,0.503h1.107v15.637H6.409
			c-0.278,0-0.503,0.226-0.503,0.504c0,0.277,0.226,0.504,0.503,0.504h20.94c0.277,0,0.503-0.227,0.503-0.504V4.262
			C27.853,3.984,27.627,3.758,27.35,3.758z"/>
	</g>
</g>
<g>
	<g>
		<path fill="#FC3C3C" d="M24.127,6.443c-0.869,0-1.576,0.708-1.576,1.577c0,0.268,0.066,0.52,0.185,0.741l-4.032,4.271
			c-0.201-0.093-0.426-0.146-0.66-0.146c-0.42,0-0.803,0.166-1.085,0.434l-3.444-1.823c0.014-0.083,0.021-0.168,0.021-0.254
			c0-0.87-0.708-1.577-1.577-1.577s-1.577,0.708-1.577,1.577c0,0.243,0.055,0.474,0.154,0.68l-3.941,3.825
			c-0.216-0.111-0.461-0.176-0.721-0.176c-0.87,0-1.577,0.707-1.577,1.577s0.708,1.577,1.577,1.577s1.577-0.707,1.577-1.577
			c0-0.243-0.056-0.474-0.154-0.68l3.94-3.825c0.217,0.112,0.462,0.176,0.722,0.176c0.42,0,0.801-0.165,1.084-0.434l3.444,1.823
			c-0.014,0.083-0.021,0.168-0.021,0.254c0,0.87,0.708,1.577,1.578,1.577c0.869,0,1.576-0.708,1.576-1.577
			c0-0.268-0.066-0.52-0.185-0.741l4.032-4.27c0.201,0.093,0.426,0.145,0.66,0.145c0.87,0,1.578-0.708,1.578-1.577
			S24.997,6.443,24.127,6.443z M5.873,17.719c-0.314,0-0.57-0.256-0.57-0.571c0-0.314,0.256-0.57,0.57-0.57s0.57,0.256,0.57,0.57
			C6.443,17.463,6.187,17.719,5.873,17.719z M11.958,11.812c-0.314,0-0.57-0.256-0.57-0.57s0.256-0.57,0.57-0.57
			s0.57,0.256,0.57,0.57S12.272,11.812,11.958,11.812z M18.043,15.034c-0.314,0-0.57-0.256-0.57-0.571c0-0.314,0.256-0.57,0.57-0.57
			s0.57,0.256,0.57,0.57C18.613,14.778,18.357,15.034,18.043,15.034z M24.127,8.591c-0.314,0-0.57-0.256-0.57-0.571
			s0.256-0.57,0.57-0.57s0.57,0.256,0.57,0.57S24.441,8.591,24.127,8.591z"/>
	</g>
</g>
<g>
	<g>
		<path fill="#FC3C3C" d="M24.127,10.738c-0.277,0-0.503,0.225-0.503,0.503v7.516c0,0.278,0.226,0.504,0.503,0.504
			c0.278,0,0.504-0.225,0.504-0.504v-7.516C24.631,10.964,24.406,10.738,24.127,10.738z"/>
	</g>
</g>
<g>
	<g>
		<path fill="#FC3C3C" d="M11.958,13.959c-0.278,0-0.503,0.226-0.503,0.503v4.295c0,0.279,0.226,0.504,0.503,0.504
			s0.503-0.225,0.503-0.504v-4.295C12.461,14.185,12.235,13.959,11.958,13.959z"/>
	</g>
</g>
<g>
	<g>
		<path fill="#FC3C3C" d="M18.043,17.182c-0.278,0-0.504,0.225-0.504,0.503v1.073c0,0.279,0.226,0.504,0.504,0.504
			c0.277,0,0.503-0.225,0.503-0.504v-1.073C18.546,17.406,18.32,17.182,18.043,17.182z"/>
	</g>
</g>
</svg>
