<?xml version="1.0" encoding="utf-8"?>
<!-- Generator: Adobe Illustrator 16.0.0, SVG Export Plug-In . SVG Version: 6.00 Build 0)  -->
<!DOCTYPE svg PUBLIC "-//W3C//DTD SVG 1.1//EN" "http://www.w3.org/Graphics/SVG/1.1/DTD/svg11.dtd">
<svg version="1.1" id="Layer_1" xmlns="http://www.w3.org/2000/svg" xmlns:xlink="http://www.w3.org/1999/xlink" x="0px" y="0px"
	 width="30px" height="30px" viewBox="0 0 30 30" enable-background="new 0 0 30 30" xml:space="preserve">
<g>
	<g>
		<path fill="#FC3C3C" d="M22.916,10.541L21.5,9.124c-0.184-0.183-0.428-0.284-0.688-0.284c-0.259,0-0.503,0.101-0.686,0.284
			l-0.022,0.022L15.809,4.85l0.021-0.022c0.184-0.183,0.285-0.427,0.285-0.686s-0.102-0.503-0.285-0.687l-1.417-1.417
			c-0.378-0.378-0.995-0.378-1.373,0L9.498,5.581c-0.378,0.378-0.378,0.995,0,1.373l1.417,1.417c0.378,0.378,0.994,0.378,1.373,0
			l0.022-0.022l0.753,0.753l-0.731,0.73c-0.183,0.184-0.284,0.427-0.284,0.687c0,0.092,0.013,0.182,0.038,0.269L0.431,22.441
			C0.153,22.719,0,23.09,0,23.482s0.153,0.763,0.431,1.041c0.287,0.287,0.664,0.43,1.041,0.43s0.754-0.143,1.041-0.43l11.654-11.655
			c0.086,0.024,0.176,0.038,0.269,0.038c0.259,0,0.503-0.101,0.687-0.284l0.73-0.731l0.753,0.753l-0.021,0.022
			c-0.184,0.183-0.285,0.427-0.285,0.686s0.102,0.503,0.285,0.687L18,15.457c0.184,0.183,0.428,0.284,0.688,0.284
			c0.259,0,0.502-0.101,0.686-0.284l3.543-3.543c0.184-0.184,0.285-0.427,0.285-0.687S23.1,10.724,22.916,10.541z M1.848,23.859
			c-0.208,0.207-0.545,0.207-0.753,0c-0.101-0.102-0.156-0.234-0.156-0.377s0.055-0.275,0.156-0.377l11.569-11.568l0.753,0.753
			L1.848,23.859z M14.458,11.958c-0.002,0.002-0.009,0.009-0.022,0.009s-0.02-0.007-0.022-0.009l-1.417-1.417
			c-0.002-0.002-0.009-0.009-0.009-0.022s0.007-0.02,0.009-0.022l0.731-0.731l1.461,1.461L14.458,11.958z M22.252,11.249
			l-3.543,3.543c-0.002,0.002-0.009,0.009-0.021,0.009c-0.014,0-0.021-0.007-0.022-0.009l-1.417-1.417
			c-0.002-0.002-0.01-0.009-0.01-0.022c0-0.013,0.008-0.02,0.01-0.022l0.354-0.354c0.184-0.184,0.184-0.481,0-0.665l-4.627-4.628
			l1.085-1.085c0.184-0.184,0.184-0.481,0-0.664c-0.184-0.184-0.481-0.184-0.664,0l-1.771,1.771c-0.012,0.012-0.032,0.012-0.044,0
			l-1.417-1.417c-0.012-0.012-0.012-0.032,0-0.044l3.542-3.543c0.013-0.012,0.032-0.012,0.044,0l1.417,1.417
			c0.012,0.012,0.012,0.032,0,0.044c0,0-0.33,0.33-0.353,0.353c-0.002,0.002-0.005,0.005-0.008,0.008
			c-0.177,0.185-0.175,0.477,0.006,0.658l4.627,4.628l-1.084,1.085c-0.092,0.092-0.139,0.212-0.139,0.332s0.047,0.241,0.139,0.332
			c0.184,0.184,0.48,0.184,0.664,0l1.771-1.771c0.002-0.002,0.009-0.009,0.021-0.009c0.014,0,0.02,0.007,0.022,0.009l1.417,1.417
			c0.002,0.002,0.01,0.009,0.01,0.022C22.262,11.24,22.254,11.247,22.252,11.249z"/>
	</g>
</g>
<g>
	<g>
		<path fill="#FC3C3C" d="M29.986,27.662l-0.312-1.244c-0.164-0.657-0.751-1.115-1.428-1.115h-0.251V24.27
			c0-0.535-0.436-0.971-0.971-0.971H20.01c-0.535,0-0.971,0.436-0.971,0.971v1.033h-0.25c-0.678,0-1.264,0.458-1.428,1.115
			l-0.313,1.244c-0.035,0.141-0.003,0.289,0.086,0.403c0.09,0.114,0.226,0.181,0.371,0.181H29.53c0.145,0,0.281-0.066,0.37-0.181
			C29.99,27.951,30.021,27.803,29.986,27.662z M18.107,27.307l0.164-0.662c0.061-0.236,0.272-0.402,0.518-0.402h1.723
			c0.26,0,0.469-0.211,0.469-0.471c0-0.259-0.209-0.469-0.469-0.469h-0.533V24.27c0-0.018,0.015-0.031,0.031-0.031h7.016
			c0.018,0,0.031,0.014,0.031,0.031v1.033h-4.541c-0.26,0-0.471,0.21-0.471,0.469c0,0.26,0.211,0.471,0.471,0.471h5.73
			c0.245,0,0.457,0.166,0.518,0.402l0.165,0.662H18.107z"/>
	</g>
</g>
<g>
	<g>
		<path fill="#FC3C3C" d="M23.518,18.789c-0.26,0-0.47,0.21-0.47,0.47v2.505c0,0.26,0.21,0.471,0.47,0.471s0.47-0.211,0.47-0.471
			v-2.505C23.987,18.999,23.777,18.789,23.518,18.789z"/>
	</g>
</g>
<g>
	<g>
		<path fill="#FC3C3C" d="M26.232,20.342c-0.231-0.116-0.514-0.021-0.629,0.21l-0.502,1.002c-0.115,0.231-0.021,0.515,0.211,0.63
			c0.066,0.034,0.139,0.051,0.209,0.051c0.172,0,0.338-0.096,0.42-0.26l0.502-1.003C26.559,20.74,26.465,20.457,26.232,20.342z"/>
	</g>
</g>
<g>
	<g>
		<path fill="#FC3C3C" d="M21.934,21.554l-0.501-1.002c-0.116-0.231-0.397-0.326-0.63-0.21c-0.232,0.115-0.326,0.398-0.211,0.63
			l0.502,1.003c0.082,0.164,0.248,0.26,0.42,0.26c0.07,0,0.143-0.017,0.21-0.051C21.955,22.068,22.05,21.785,21.934,21.554z"/>
	</g>
</g>
</svg>
