<?xml version="1.0" encoding="utf-8"?>
<!-- Generator: Adobe Illustrator 16.0.0, SVG Export Plug-In . SVG Version: 6.00 Build 0)  -->
<!DOCTYPE svg PUBLIC "-//W3C//DTD SVG 1.1//EN" "http://www.w3.org/Graphics/SVG/1.1/DTD/svg11.dtd">
<svg version="1.1" id="Layer_1" xmlns="http://www.w3.org/2000/svg" xmlns:xlink="http://www.w3.org/1999/xlink" x="0px" y="0px"
	 width="30px" height="30px" viewBox="0 0 30 30" enable-background="new 0 0 30 30" xml:space="preserve">
<path fill="#FC3C3C" d="M26.368,10.188h-2.363c-0.226,0-0.408,0.183-0.408,0.408c0,0.225,0.183,0.407,0.408,0.407h2.363
	c0.226,0,0.408-0.183,0.408-0.407C26.776,10.37,26.594,10.188,26.368,10.188z"/>
<path fill="#FC3C3C" d="M24.005,7.699h1.073c0.225,0,0.407-0.182,0.407-0.408c0-0.225-0.183-0.408-0.407-0.408h-1.073
	c-0.226,0-0.408,0.183-0.408,0.408C23.597,7.517,23.779,7.699,24.005,7.699z"/>
<path fill="#FC3C3C" d="M24.005,4.396h1.454c0.225,0,0.407-0.183,0.407-0.407c0-0.225-0.183-0.408-0.407-0.408h-1.454
	c-0.226,0-0.408,0.183-0.408,0.408C23.597,4.213,23.779,4.396,24.005,4.396z"/>
<path fill="#FC3C3C" d="M25.459,16.794h-1.454c-0.226,0-0.408,0.182-0.408,0.408c0,0.225,0.183,0.406,0.408,0.406h1.454
	c0.225,0,0.407-0.182,0.407-0.406C25.866,16.976,25.684,16.794,25.459,16.794z"/>
<path fill="#FC3C3C" d="M24.005,14.306h1.073c0.225,0,0.407-0.182,0.407-0.408c0-0.225-0.183-0.408-0.407-0.408h-1.073
	c-0.226,0-0.408,0.183-0.408,0.408C23.597,14.124,23.779,14.306,24.005,14.306z"/>
<path fill="#FC3C3C" d="M11.854,9.936c0.674,0.36,0.715,0.442,0.894,0.442c0.419,0,0.564-0.56,0.199-0.763l-0.695-0.39l0.512-0.209
	c0.208-0.085,0.308-0.323,0.222-0.532c-0.085-0.208-0.323-0.308-0.531-0.222l-1.111,0.455L9.885,7.899l1.458-0.816
	c1.143,0.457,1.125,0.486,1.266,0.486c0.445,0,0.566-0.616,0.155-0.785l-0.512-0.209l0.695-0.389
	c0.197-0.109,0.267-0.358,0.157-0.555s-0.358-0.266-0.555-0.156l-0.695,0.389l0.089-0.545c0.036-0.222-0.115-0.432-0.337-0.468
	c-0.222-0.036-0.431,0.115-0.467,0.337l-0.192,1.185L9.458,7.205V5.501l0.94-0.747c0.176-0.141,0.205-0.396,0.065-0.573
	c-0.14-0.177-0.396-0.206-0.573-0.065L9.458,4.459V3.663c0-0.225-0.182-0.408-0.407-0.408S8.643,3.438,8.643,3.663v0.797
	L8.211,4.116c-0.177-0.14-0.433-0.111-0.573,0.065C7.498,4.357,7.527,4.613,7.704,4.754l0.939,0.747v1.704L7.157,6.372L6.964,5.187
	C6.928,4.965,6.719,4.814,6.497,4.85S6.124,5.096,6.16,5.318l0.089,0.545L5.553,5.474c-0.196-0.11-0.445-0.04-0.555,0.156
	s-0.04,0.445,0.156,0.555l0.696,0.389L5.338,6.784C5.131,6.87,5.031,7.107,5.116,7.316s0.323,0.308,0.531,0.223l1.111-0.456
	L8.216,7.9L6.759,8.716L5.647,8.261C5.439,8.176,5.201,8.275,5.116,8.484C5.031,8.692,5.131,8.93,5.338,9.015l0.512,0.209
	l-0.696,0.39c-0.364,0.204-0.219,0.763,0.2,0.763c0.18,0,0.22-0.082,0.895-0.442L6.16,10.481c-0.041,0.248,0.151,0.473,0.403,0.473
	c0.196,0,0.369-0.143,0.402-0.342l0.193-1.185l1.486-0.833v1.704l-0.939,0.747c-0.176,0.14-0.206,0.396-0.065,0.573
	c0.14,0.176,0.396,0.206,0.573,0.065l0.432-0.344v0.797c0,0.225,0.183,0.407,0.408,0.407s0.407-0.182,0.407-0.407V11.34
	c0.377,0.272,0.458,0.433,0.687,0.433c0.384,0,0.556-0.487,0.254-0.727l-0.94-0.747V8.595l1.487,0.833l0.192,1.185
	c0.032,0.199,0.205,0.342,0.402,0.342c0.251,0,0.442-0.226,0.403-0.473L11.854,9.936z"/>
<path fill="#FC3C3C" d="M22.235,17.924V4.775c0-2.032-1.654-3.686-3.688-3.686c-2.032,0-3.686,1.654-3.686,3.686v13.149
	c-1.523,1.153-2.426,2.96-2.426,4.876c0,3.37,2.742,6.111,6.112,6.111c3.37,0,6.113-2.741,6.113-6.111
	C24.661,20.884,23.758,19.077,22.235,17.924z M18.548,28.097c-2.921,0-5.296-2.377-5.296-5.297c0-1.723,0.842-3.343,2.252-4.336
	c0.108-0.076,0.173-0.2,0.173-0.333V4.775c0-1.583,1.289-2.871,2.871-2.871c1.583,0,2.872,1.288,2.872,2.871v13.356
	c0,0.133,0.063,0.257,0.172,0.333c1.412,0.993,2.254,2.613,2.254,4.336C23.846,25.72,21.47,28.097,18.548,28.097z"/>
<path fill="#FC3C3C" d="M20.332,18.731V4.775c0-0.984-0.801-1.784-1.784-1.784s-1.783,0.8-1.783,1.784v1.262
	c0,0.226,0.183,0.408,0.407,0.408s0.407-0.182,0.407-0.408V4.775c0-0.534,0.435-0.969,0.969-0.969c0.535,0,0.97,0.435,0.97,0.969
	v12.079h-1.938V7.671c0-0.226-0.183-0.408-0.407-0.408s-0.407,0.182-0.407,0.408v11.06c-1.544,0.696-2.563,2.254-2.563,3.964
	c0,2.397,1.95,4.348,4.347,4.348c2.397,0,4.348-1.95,4.348-4.348C22.896,20.985,21.877,19.428,20.332,18.731z M18.548,26.228
	c-1.947,0-3.532-1.584-3.532-3.532c0-1.467,0.923-2.797,2.298-3.309c0.16-0.061,0.265-0.212,0.265-0.382v-1.338h1.938v1.338
	c0,0.17,0.105,0.321,0.265,0.382c1.375,0.512,2.298,1.842,2.298,3.309C22.08,24.644,20.496,26.228,18.548,26.228z"/>
</svg>
