<?xml version="1.0" encoding="utf-8"?>
<!-- Generator: Adobe Illustrator 16.0.0, SVG Export Plug-In . SVG Version: 6.00 Build 0)  -->
<!DOCTYPE svg PUBLIC "-//W3C//DTD SVG 1.1//EN" "http://www.w3.org/Graphics/SVG/1.1/DTD/svg11.dtd">
<svg version="1.1" id="Layer_1" xmlns="http://www.w3.org/2000/svg" xmlns:xlink="http://www.w3.org/1999/xlink" x="0px" y="0px"
	 width="30px" height="30px" viewBox="0 0 30 30" enable-background="new 0 0 30 30" xml:space="preserve">
<g>
	<g>
		<path fill="#FC3C3C" d="M23.922,3.312h-0.005c-0.264,0-0.476,0.214-0.476,0.478c0,0.264,0.217,0.478,0.48,0.478
			S24.4,4.054,24.4,3.79C24.4,3.526,24.186,3.312,23.922,3.312z"/>
	</g>
</g>
<g>
	<g>
		<path fill="#FC3C3C" d="M17.045,22.83l-4.546-1.895c-0.203-0.085-0.333-0.281-0.333-0.5v-0.965l0.85-0.473
			c0.729-0.404,1.208-1.141,1.284-1.971l0.002-0.021h0.444c0.825,0,1.497-0.671,1.497-1.496v-0.92
			c0.134-0.323,0.51-1.359,0.51-2.788c0-1.975-0.773-3.837-2.178-5.246c-0.537-0.539-1.145-0.986-1.804-1.336
			c-0.023-1.617-1.642-2.927-3.629-2.927c-1.987,0-3.606,1.31-3.629,2.927c-0.659,0.35-1.267,0.797-1.804,1.336
			c-1.404,1.408-2.178,3.271-2.178,5.246c0,1.429,0.375,2.464,0.509,2.788v0.92c0,0.825,0.672,1.496,1.497,1.496h0.444l0.002,0.021
			c0.075,0.83,0.555,1.566,1.284,1.971l0.85,0.473v0.965c0,0.219-0.131,0.415-0.333,0.5L1.235,22.83C0.485,23.143,0,23.869,0,24.682
			v3.057c0,0.826,0.671,1.498,1.497,1.498h15.287c0.826,0,1.497-0.672,1.497-1.498v-3.057C18.28,23.869,17.795,23.143,17.045,22.83z
			 M15.287,15.51c0,0.299-0.243,0.541-0.542,0.541h-0.357l0.191-2.102h0.166c0.299,0,0.542,0.243,0.542,0.541V15.51z M9.14,3.249
			c1.251,0,2.304,0.647,2.595,1.52c-0.818-0.287-1.693-0.437-2.595-0.437s-1.777,0.15-2.595,0.437
			C6.836,3.896,7.889,3.249,9.14,3.249z M3.535,16.051c-0.299,0-0.542-0.242-0.542-0.541v-1.02c0-0.298,0.243-0.541,0.542-0.541
			h0.166l0.191,2.102H3.535z M5.729,18.163c-0.452-0.251-0.75-0.708-0.796-1.223l-0.363-4c0.625-0.004,1.72-0.057,3.001-0.322
			c2.621-0.543,4.758-1.728,6.182-3.425c0.169-0.202,0.143-0.503-0.059-0.673s-0.503-0.143-0.673,0.059
			c-3.108,3.705-8.867,3.402-8.946,3.397v0c-0.024-0.001-0.048-0.002-0.073,0C3.739,12,3.545,12.233,3.569,12.496l0.045,0.498H3.535
			c-0.334,0-0.644,0.11-0.893,0.296c-0.087-0.402-0.158-0.909-0.158-1.489c0-1.72,0.674-3.343,1.899-4.571
			c1.25-1.253,2.939-1.944,4.757-1.944s3.507,0.69,4.757,1.944c1.224,1.228,1.899,2.851,1.899,4.571c0,0.58-0.072,1.087-0.158,1.489
			c-0.25-0.186-0.559-0.296-0.894-0.296h-0.079l0.045-0.498c0.013-0.141-0.038-0.281-0.138-0.381l-1.019-1.02
			c-0.187-0.187-0.489-0.187-0.675,0s-0.187,0.489,0,0.676l0.861,0.861l-0.34,3.741c-0.39,0.346-1.627,1.207-4.259,1.207
			c-0.264,0-0.478,0.213-0.478,0.477c0,0.265,0.214,0.479,0.478,0.479c1.829,0,3.081-0.383,3.892-0.787
			c-0.128,0.168-0.291,0.31-0.48,0.416l-2.654,1.474c-0.475,0.264-1.041,0.264-1.516,0L5.729,18.163z M6.149,21.816
			c0.56-0.232,0.921-0.775,0.921-1.381v-0.434l0.848,0.471c0.382,0.213,0.802,0.318,1.222,0.318s0.839-0.105,1.222-0.318
			l0.849-0.471v0.434c0,0.605,0.361,1.148,0.921,1.381l0.501,0.209c-0.896,1.041-1.762,1.558-2.349,1.811
			c-0.649,0.279-1.098,0.303-1.144,0.305c-0.045-0.002-0.495-0.025-1.144-0.305c-0.586-0.253-1.453-0.77-2.349-1.811L6.149,21.816z
			 M3.057,28.28H1.497c-0.298,0-0.541-0.243-0.541-0.542v-3.057c0-0.132,0.024-0.26,0.069-0.377l1.638,1.311
			c0.25,0.2,0.394,0.499,0.394,0.82V28.28z M14.268,26.436v1.845H4.013v-1.845c0-0.613-0.274-1.184-0.753-1.566l-1.519-1.216
			l2.984-1.243c1.574,1.947,3.166,2.482,3.938,2.63v1.616c0,0.264,0.214,0.478,0.478,0.478s0.478-0.214,0.478-0.478V25.04
			c0.772-0.147,2.364-0.683,3.938-2.63l2.983,1.243l-1.519,1.216C14.542,25.252,14.268,25.822,14.268,26.436z M17.324,27.738
			c0,0.299-0.242,0.542-0.541,0.542h-1.56v-1.845c0-0.321,0.144-0.62,0.394-0.82l1.638-1.311c0.046,0.117,0.069,0.245,0.069,0.377
			V27.738L17.324,27.738z"/>
	</g>
</g>
<g>
	<g>
		<path fill="#FC3C3C" d="M8.551,14.283c-0.228-0.474-0.779-0.78-1.402-0.78c-0.624,0-1.175,0.306-1.403,0.78
			c-0.115,0.238-0.015,0.523,0.223,0.638c0.237,0.115,0.523,0.015,0.638-0.223c0.056-0.116,0.265-0.239,0.542-0.239
			c0.277,0,0.486,0.124,0.542,0.239c0.082,0.171,0.253,0.271,0.431,0.271c0.069,0,0.14-0.015,0.207-0.047
			C8.566,14.806,8.666,14.521,8.551,14.283z"/>
	</g>
</g>
<g>
	<g>
		<path fill="#FC3C3C" d="M12.534,14.283c-0.228-0.474-0.779-0.78-1.403-0.78c-0.624,0-1.174,0.306-1.402,0.78
			c-0.115,0.238-0.015,0.523,0.223,0.638c0.238,0.115,0.523,0.015,0.638-0.223c0.056-0.116,0.265-0.239,0.542-0.239
			c0.277,0,0.486,0.124,0.542,0.239c0.083,0.171,0.253,0.271,0.431,0.271c0.07,0,0.141-0.015,0.207-0.047
			C12.549,14.806,12.649,14.521,12.534,14.283z"/>
	</g>
</g>
<g>
	<g>
		<path fill="#FC3C3C" d="M23.917,0.764c-3.354,0-6.083,2.729-6.083,6.083c0,1.76,0.746,3.397,2.059,4.554
			c-0.658,1.079-1.374,1.701-1.381,1.707c-0.158,0.135-0.211,0.355-0.131,0.546c0.074,0.179,0.248,0.295,0.44,0.295
			c0.013,0,0.025,0,0.038-0.001c0.078-0.006,1.873-0.16,3.464-1.229c0.519,0.141,1.054,0.212,1.595,0.212
			c3.354,0,6.082-2.729,6.082-6.083S27.271,0.764,23.917,0.764z M23.917,11.975c-0.522,0-1.04-0.079-1.537-0.235
			c-0.145-0.045-0.302-0.02-0.425,0.07c-0.588,0.429-1.233,0.707-1.788,0.884c0.248-0.327,0.513-0.72,0.761-1.174
			c0.113-0.207,0.059-0.464-0.127-0.608C19.522,9.93,18.79,8.448,18.79,6.847c0-2.827,2.3-5.127,5.127-5.127s5.128,2.3,5.128,5.127
			S26.744,11.975,23.917,11.975z"/>
	</g>
</g>
<g>
	<g>
		<path fill="#FC3C3C" d="M24.427,9.427h-0.032V6.306h0.032c0.264,0,0.478-0.214,0.478-0.478c0-0.264-0.214-0.478-0.478-0.478
			h-1.019c-0.265,0-0.479,0.214-0.479,0.478c0,0.264,0.214,0.478,0.479,0.478h0.031v3.121h-0.031c-0.265,0-0.479,0.214-0.479,0.478
			c0,0.264,0.214,0.478,0.479,0.478h1.019c0.264,0,0.478-0.214,0.478-0.478C24.904,9.641,24.69,9.427,24.427,9.427z"/>
	</g>
</g>
</svg>
