<?xml version="1.0" encoding="utf-8"?>
<!-- Generator: Adobe Illustrator 16.0.0, SVG Export Plug-In . SVG Version: 6.00 Build 0)  -->
<!DOCTYPE svg PUBLIC "-//W3C//DTD SVG 1.1//EN" "http://www.w3.org/Graphics/SVG/1.1/DTD/svg11.dtd">
<svg version="1.1" id="Layer_1" xmlns="http://www.w3.org/2000/svg" xmlns:xlink="http://www.w3.org/1999/xlink" x="0px" y="0px"
	 width="30px" height="30px" viewBox="0 0 30 30" enable-background="new 0 0 30 30" xml:space="preserve">
<path fill="#FC3C3C" d="M24.198,25.239l-0.617-0.207c-0.091-0.029-0.174-0.082-0.241-0.154c-0.107-0.111-0.166-0.259-0.166-0.415
	v-0.636l0.185-0.111c0.383-0.233,0.621-0.657,0.621-1.107v-1.092c0-0.001,0-0.003,0-0.004V20.56c0-0.789-0.642-1.432-1.43-1.432
	h-1.261c-0.789,0-1.43,0.643-1.43,1.432v0.82v0.001v1.228c0,0.45,0.237,0.874,0.621,1.107l0.185,0.111v0.636
	c0,0.166-0.07,0.327-0.191,0.44c-0.063,0.059-0.137,0.103-0.218,0.129l-0.616,0.207c-0.32,0.108-0.606,0.281-0.851,0.514
	c-0.002,0.002-0.004,0.004-0.007,0.006c-0.002,0.002-0.005,0.005-0.007,0.007c-0.003,0.002-0.005,0.005-0.007,0.008
	c-0.005,0.005-0.012,0.012-0.018,0.018c-0.004,0.005-0.007,0.009-0.011,0.013c-0.004,0.007-0.009,0.012-0.014,0.019
	c-0.003,0.006-0.008,0.011-0.011,0.017c-0.003,0.005-0.006,0.011-0.01,0.016c-0.004,0.007-0.007,0.013-0.011,0.02
	c-0.002,0.005-0.005,0.01-0.007,0.015c-0.004,0.008-0.007,0.014-0.009,0.021c-0.002,0.006-0.005,0.011-0.007,0.016
	c-0.002,0.007-0.004,0.015-0.006,0.022c-0.003,0.005-0.004,0.011-0.005,0.017c-0.002,0.007-0.003,0.013-0.004,0.02
	c-0.002,0.007-0.003,0.014-0.003,0.021c-0.002,0.006-0.003,0.012-0.003,0.019c-0.001,0.007-0.001,0.015-0.002,0.022
	c0,0.005,0,0.011,0,0.016c0,0.008,0,0.015,0.001,0.023c0,0.006,0,0.011,0.001,0.017c0,0.007,0.001,0.015,0.003,0.022
	c0.001,0.005,0.002,0.012,0.004,0.018c0.001,0.007,0.002,0.014,0.004,0.02c0.001,0.008,0.004,0.015,0.006,0.021
	c0.002,0.006,0.004,0.011,0.005,0.017c0.004,0.007,0.007,0.016,0.01,0.023c0.001,0.003,0.002,0.006,0.004,0.009
	c0.116,0.253,0.175,0.524,0.175,0.805v2.112c0,0.227,0.185,0.41,0.41,0.41c0.227,0,0.41-0.184,0.41-0.41v-2.112
	c0-0.291-0.045-0.573-0.133-0.846c0.108-0.072,0.227-0.13,0.352-0.173l0.616-0.207c0.111-0.037,0.216-0.088,0.313-0.149
	c0.171,0.05,0.343,0.087,0.519,0.112l-0.618,2.184c-0.039,0.136-0.005,0.28,0.089,0.386l0.754,0.842
	c0.076,0.083,0.183,0.133,0.297,0.136h0.009c0.109,0,0.215-0.044,0.292-0.121l0.834-0.842c0.107-0.108,0.146-0.267,0.101-0.411
	l-0.685-2.187c0.183-0.029,0.363-0.074,0.54-0.131c0.11,0.077,0.231,0.139,0.359,0.182l0.616,0.207
	c0.607,0.205,1.015,0.773,1.015,1.415v1.716c0,0.227,0.184,0.41,0.41,0.41s0.41-0.184,0.41-0.41v-1.716
	C25.771,26.438,25.139,25.558,24.198,25.239z M21.904,24.986c-0.171,0.003-0.34-0.009-0.506-0.035
	c0.057-0.155,0.087-0.321,0.087-0.488v-0.166c0.141,0.05,0.288,0.076,0.434,0.076c0.147,0,0.294-0.026,0.435-0.076v0.166
	c0,0.159,0.025,0.314,0.076,0.461C22.257,24.961,22.081,24.982,21.904,24.986z M20.681,21.636l0.738-0.386l1.739,0.561v0.798
	c0,0.165-0.087,0.321-0.228,0.407l-0.765,0.467c-0.152,0.092-0.342,0.092-0.493,0l-0.765-0.467
	c-0.141-0.086-0.228-0.242-0.228-0.407V21.636z M21.289,19.948h1.261c0.336,0,0.608,0.274,0.608,0.611v0.388l-1.651-0.531
	c-0.105-0.034-0.219-0.024-0.316,0.027l-0.51,0.266V20.56C20.681,20.223,20.953,19.948,21.289,19.948z M21.895,28.312l-0.313-0.349
	l0.318-1.123l0.349,1.115L21.895,28.312z"/>
<path fill="#FC3C3C" d="M17.812,24.428l-0.76-0.257c-0.127-0.042-0.242-0.116-0.335-0.211c0-0.002-0.001-0.002-0.001-0.002
	c-0.149-0.156-0.231-0.362-0.231-0.579v-0.834l0.272-0.166c0.444-0.271,0.72-0.762,0.72-1.282v-1.346c0-0.001,0-0.002,0-0.003
	v-1.174c0-0.92-0.748-1.667-1.665-1.667h-1.553c-0.917,0-1.665,0.747-1.665,1.667v1.012v0.002v1.509
	c0,0.521,0.275,1.012,0.719,1.282l0.272,0.166v0.834c0,0.231-0.097,0.456-0.266,0.613c-0.088,0.081-0.189,0.143-0.302,0.18
	l-0.758,0.256c-0.557,0.188-1.036,0.55-1.371,1.025c-0.144-0.087-0.296-0.159-0.459-0.214l-0.617-0.207
	c-0.092-0.031-0.173-0.081-0.241-0.153c-0.107-0.112-0.167-0.26-0.167-0.416v-0.636l0.185-0.111
	c0.383-0.233,0.621-0.657,0.621-1.107v-1.092c0-0.001,0-0.003,0-0.004V20.56c0-0.789-0.641-1.432-1.429-1.432H7.521
	c-0.788,0-1.429,0.643-1.429,1.432v0.82v0.001v1.228c0,0.45,0.238,0.874,0.621,1.107l0.184,0.111v0.636
	c0,0.166-0.07,0.327-0.191,0.44c-0.063,0.059-0.136,0.103-0.217,0.129l-0.616,0.207c-0.941,0.318-1.573,1.199-1.573,2.193v1.716
	c0,0.227,0.184,0.41,0.41,0.41s0.41-0.184,0.41-0.41v-1.716c0-0.643,0.408-1.21,1.015-1.415l0.616-0.207
	c0.111-0.037,0.215-0.088,0.313-0.15c0.17,0.051,0.343,0.088,0.518,0.111l-0.618,2.186c-0.038,0.135-0.004,0.28,0.09,0.386
	l0.754,0.842c0.075,0.083,0.182,0.133,0.295,0.136h0.01c0.109,0,0.214-0.044,0.292-0.121l0.834-0.842
	c0.107-0.108,0.146-0.267,0.101-0.411L8.653,25.76c0.182-0.029,0.362-0.074,0.539-0.132c0.111,0.078,0.232,0.141,0.36,0.183
	l0.616,0.207c0.126,0.043,0.244,0.101,0.352,0.173c-0.088,0.272-0.132,0.555-0.132,0.846v2.112c0,0.227,0.184,0.41,0.411,0.41
	c0.226,0,0.41-0.184,0.41-0.41v-2.112c0-0.28,0.059-0.552,0.175-0.805c0.221-0.483,0.635-0.857,1.138-1.026l0.757-0.255
	c0.143-0.049,0.276-0.115,0.4-0.199c0.253,0.078,0.512,0.13,0.774,0.16l-0.791,2.797c-0.038,0.135-0.005,0.279,0.089,0.385
	l0.928,1.035c0.076,0.085,0.183,0.135,0.296,0.137c0.003,0,0.006,0,0.01,0c0.109,0,0.214-0.043,0.291-0.121l1.027-1.036
	c0.106-0.108,0.146-0.266,0.1-0.41l-0.875-2.799c0.272-0.036,0.542-0.1,0.804-0.188c0.14,0.103,0.294,0.185,0.458,0.239l0.758,0.256
	c0.044,0.015,0.088,0.021,0.132,0.021c0.171,0,0.33-0.108,0.389-0.28C18.141,24.732,18.026,24.499,17.812,24.428z M8.136,24.986
	c-0.17,0.003-0.339-0.009-0.505-0.035c0.057-0.155,0.087-0.321,0.087-0.488v-0.166c0.14,0.05,0.287,0.076,0.434,0.076
	c0.147,0,0.293-0.026,0.434-0.076v0.166c0,0.159,0.026,0.314,0.076,0.461C8.488,24.961,8.313,24.982,8.136,24.986z M6.912,21.636
	l0.739-0.386l1.739,0.561v0.798c0,0.165-0.087,0.321-0.227,0.407l-0.766,0.467c-0.152,0.092-0.34,0.092-0.492,0L7.14,23.016
	C7,22.93,6.912,22.773,6.912,22.608V21.636z M7.521,19.948h1.261c0.335,0,0.608,0.274,0.608,0.611v0.388l-1.651-0.531
	c-0.104-0.034-0.218-0.024-0.316,0.027l-0.511,0.266V20.56C6.912,20.223,7.185,19.948,7.521,19.948z M8.126,28.312l-0.313-0.349
	l0.318-1.123l0.349,1.115L8.126,28.312z M15.019,24.118c-0.254,0.006-0.507-0.017-0.755-0.066c0.094-0.21,0.144-0.438,0.144-0.673
	v-0.346c0.2,0.093,0.414,0.14,0.628,0.14s0.429-0.047,0.628-0.14v0.346c0,0.221,0.044,0.437,0.128,0.637
	C15.537,24.079,15.279,24.113,15.019,24.118z M14.259,17.728h1.553c0.466,0,0.845,0.38,0.845,0.847v0.608l-2.158-0.694
	c-0.104-0.033-0.218-0.023-0.315,0.026l-0.768,0.401v-0.342C13.415,18.107,13.793,17.728,14.259,17.728z M13.415,19.841l0.996-0.519
	l2.246,0.723v1.052c0,0.236-0.126,0.459-0.326,0.582l-0.942,0.573c-0.217,0.134-0.487,0.134-0.705,0l-0.942-0.573
	c-0.201-0.123-0.326-0.346-0.326-0.582V19.841z M15.001,28.257l-0.487-0.544l0.492-1.739l0.542,1.731L15.001,28.257z"/>
<path fill="#FC3C3C" d="M28.884,21.916l-9.385-9.386c0-0.001-0.001-0.001-0.001-0.002l-3.314-3.314
	C15.968,8.997,15.7,8.85,15.41,8.785V6.198h4.502c0.242,0,0.453-0.146,0.539-0.372c0.085-0.227,0.023-0.476-0.159-0.635L19.226,4.25
	l1.066-0.94c0.183-0.16,0.244-0.409,0.159-0.635c-0.086-0.226-0.297-0.372-0.539-0.372H15.41V2.161c0-0.227-0.184-0.411-0.411-0.411
	s-0.411,0.184-0.411,0.411v6.652c-0.248,0.075-0.475,0.211-0.664,0.4l-1.459,1.46c-0.161,0.16-0.161,0.419,0,0.58
	c0.16,0.16,0.42,0.16,0.58,0l1.46-1.46c0.146-0.147,0.341-0.228,0.549-0.228s0.402,0.081,0.549,0.228l2.959,2.961l-1.271,0.838
	l-1.521-1.065c-0.146-0.102-0.34-0.099-0.482,0.008l-1.393,1.049l-1.337-0.892c-0.112-0.075-0.253-0.09-0.378-0.041l-0.874,0.342
	l0.439-0.439c0.16-0.16,0.16-0.42,0-0.581c-0.161-0.16-0.42-0.16-0.581,0l-1.819,1.82c-0.001,0-0.001,0.001-0.002,0.002
	l-8.229,8.231c-0.161,0.159-0.161,0.419,0,0.579c0.08,0.08,0.185,0.12,0.29,0.12s0.21-0.04,0.29-0.12l8.166-8.168l2.419-0.945
	l1.401,0.936c0.146,0.098,0.336,0.092,0.475-0.013l1.388-1.046l1.506,1.055c0.139,0.096,0.32,0.099,0.461,0.006l1.645-1.085
	l9.148,9.15c0.08,0.08,0.186,0.121,0.291,0.121c0.104,0,0.209-0.041,0.289-0.12C29.044,22.336,29.044,22.076,28.884,21.916z
	 M19.264,3.124l-0.79,0.695c-0.123,0.109-0.194,0.267-0.194,0.432c0,0.166,0.071,0.323,0.194,0.432l0.79,0.695H15.41V3.124H19.264z"
	/>
</svg>
