<?xml version="1.0" encoding="utf-8"?>
<!-- Generator: Adobe Illustrator 16.0.0, SVG Export Plug-In . SVG Version: 6.00 Build 0)  -->
<!DOCTYPE svg PUBLIC "-//W3C//DTD SVG 1.1//EN" "http://www.w3.org/Graphics/SVG/1.1/DTD/svg11.dtd">
<svg version="1.1" id="Layer_1" xmlns="http://www.w3.org/2000/svg" xmlns:xlink="http://www.w3.org/1999/xlink" x="0px" y="0px"
	 width="30px" height="30px" viewBox="0 0 30 30" enable-background="new 0 0 30 30" xml:space="preserve">
<g>
	<g>
		<path fill="#FC3C3C" d="M22.988,13.247c0-0.95-0.773-1.723-1.723-1.723H18.1c0.77-0.864,1.272-1.849,1.369-2.731
			c0.06-0.54-0.107-1.075-0.457-1.469c-0.32-0.36-0.758-0.561-1.232-0.565c-0.005,0-0.01,0-0.016,0c-0.459,0-0.89,0.177-1.215,0.499
			c-0.324,0.322-0.505,0.751-0.507,1.209c-0.017,0.1-0.193,0.446-0.625,0.856c-0.354,0.336-0.964,0.798-1.865,1.091
			c-0.354,0.115-0.676,0.326-0.96,0.628c-0.149,0.158-0.372,0.377-0.647,0.596c-0.135-0.072-0.289-0.113-0.453-0.113H8.486
			c-0.535,0-0.971,0.436-0.971,0.971v8.017c0,0.535,0.436,0.971,0.971,0.971h3.006c0.365,0,0.683-0.203,0.849-0.501h7.672
			c0.811,0,1.471-0.66,1.471-1.472c0-0.273-0.074-0.529-0.204-0.748c0.423-0.259,0.706-0.725,0.706-1.256
			c0-0.273-0.075-0.529-0.205-0.748c0.423-0.26,0.705-0.726,0.705-1.257c0-0.307-0.094-0.592-0.256-0.829
			C22.688,14.362,22.988,13.839,22.988,13.247z M21.266,14.029h-0.25c-0.26,0-0.471,0.21-0.471,0.47s0.211,0.47,0.471,0.47
			c0.293,0,0.531,0.239,0.531,0.532c0,0.294-0.238,0.532-0.531,0.532h-0.502c-0.26,0-0.469,0.211-0.469,0.471
			c0,0.259,0.209,0.469,0.469,0.469c0.294,0,0.533,0.239,0.533,0.533c0,0.293-0.239,0.531-0.533,0.531h-0.5
			c-0.26,0-0.471,0.211-0.471,0.471s0.211,0.469,0.471,0.469c0.293,0,0.531,0.24,0.531,0.533s-0.238,0.532-0.531,0.532h-7.55v-4.54
			c0-0.26-0.21-0.47-0.47-0.47c-0.259,0-0.47,0.21-0.47,0.47v5.01c0,0.018-0.014,0.031-0.031,0.031H8.486
			c-0.017,0-0.031-0.014-0.031-0.031v-8.017c0-0.017,0.014-0.031,0.031-0.031h3.006c0.017,0,0.031,0.014,0.031,0.031v1.002
			c0,0.259,0.21,0.47,0.47,0.47c0.26,0,0.47-0.21,0.47-0.47v-1.002c0-0.022-0.002-0.045-0.003-0.067
			c0.352-0.272,0.634-0.548,0.818-0.744c0.174-0.186,0.364-0.313,0.565-0.377c1.105-0.359,1.85-0.937,2.278-1.358
			c0.539-0.529,0.86-1.08,0.86-1.474c0-0.208,0.081-0.403,0.229-0.55c0.149-0.148,0.348-0.226,0.562-0.227
			c0.264,0.002,0.438,0.137,0.537,0.25c0.172,0.193,0.256,0.471,0.227,0.742c-0.104,0.934-0.85,2.087-1.902,2.939
			c-0.154,0.125-0.213,0.334-0.146,0.521s0.244,0.313,0.442,0.313h4.337c0.432,0,0.783,0.351,0.783,0.783
			C22.049,13.678,21.697,14.029,21.266,14.029z"/>
	</g>
</g>
<g>
	<g>
		<path fill="#FC3C3C" d="M9.99,18.533c-0.26,0-0.472,0.213-0.472,0.473s0.212,0.473,0.472,0.473c0.259,0,0.472-0.213,0.472-0.473
			S10.249,18.533,9.99,18.533z"/>
	</g>
</g>
<g>
	<g>
		<path fill="#FC3C3C" d="M29.162,15l0.808-2.135c0.059-0.155,0.03-0.33-0.073-0.46l-1.427-1.781l0.107-2.28
			c0.008-0.166-0.073-0.324-0.212-0.415l-1.907-1.253l-0.603-2.202c-0.043-0.16-0.169-0.285-0.329-0.329l-2.202-0.602l-1.253-1.908
			c-0.091-0.139-0.249-0.219-0.415-0.211L19.377,1.53l-1.781-1.427C17.465,0,17.291-0.028,17.135,0.03L15,0.837L12.865,0.03
			c-0.155-0.059-0.33-0.031-0.46,0.073l-1.781,1.428l-2.28-0.108C8.177,1.415,8.02,1.496,7.929,1.634L6.675,3.542L4.474,4.145
			c-0.16,0.043-0.286,0.169-0.329,0.329L3.542,6.675L1.634,7.929C1.496,8.02,1.415,8.177,1.423,8.343l0.108,2.28l-1.428,1.781
			C0,12.535-0.028,12.709,0.03,12.865L0.837,15L0.03,17.135c-0.059,0.156-0.031,0.33,0.073,0.461l1.427,1.781l-0.107,2.279
			c-0.008,0.166,0.073,0.324,0.211,0.415l1.908,1.253l0.603,2.202c0.043,0.16,0.169,0.286,0.329,0.329l2.202,0.603l1.253,1.907
			c0.091,0.139,0.249,0.219,0.415,0.212l2.28-0.107l1.781,1.427c0.13,0.104,0.305,0.132,0.46,0.073L15,29.162l2.135,0.808
			C17.189,29.99,17.246,30,17.301,30c0.105,0,0.209-0.035,0.295-0.104l1.781-1.427l2.279,0.107c0.167,0.007,0.324-0.073,0.415-0.212
			l1.253-1.907l2.202-0.603c0.16-0.043,0.286-0.169,0.329-0.329l0.603-2.202l1.907-1.253c0.139-0.091,0.22-0.249,0.212-0.415
			l-0.107-2.279l1.427-1.781c0.104-0.131,0.132-0.305,0.073-0.461L29.162,15z M28.221,15.166l0.775,2.051l-1.371,1.711
			c-0.071,0.09-0.107,0.201-0.102,0.316l0.103,2.189l-1.832,1.203c-0.096,0.063-0.165,0.158-0.195,0.27L25.02,25.02l-2.113,0.579
			c-0.111,0.03-0.207,0.1-0.27,0.195l-1.203,1.832l-2.189-0.103c-0.115-0.006-0.227,0.03-0.316,0.102l-1.711,1.371l-2.051-0.775
			c-0.053-0.02-0.11-0.029-0.166-0.029s-0.113,0.01-0.166,0.029l-2.051,0.775l-1.711-1.371c-0.089-0.071-0.202-0.107-0.316-0.102
			l-2.189,0.103l-1.204-1.832c-0.063-0.096-0.159-0.165-0.269-0.195L4.98,25.02l-0.579-2.113c-0.03-0.111-0.1-0.207-0.195-0.27
			l-1.832-1.203l0.103-2.189c0.006-0.115-0.031-0.227-0.103-0.316l-1.371-1.711l0.775-2.051c0.041-0.107,0.041-0.225,0-0.332
			l-0.775-2.051l1.371-1.711c0.072-0.089,0.108-0.202,0.103-0.316L2.374,8.567l1.832-1.204C4.302,7.3,4.371,7.205,4.401,7.094
			L4.98,4.98l2.114-0.579c0.11-0.03,0.206-0.1,0.269-0.195l1.204-1.832l2.189,0.103c0.114,0.005,0.227-0.031,0.316-0.103
			l1.711-1.371l2.051,0.775c0.107,0.041,0.225,0.041,0.332,0l2.051-0.775l1.711,1.371c0.09,0.072,0.201,0.108,0.316,0.103
			l2.189-0.103l1.203,1.832c0.063,0.096,0.158,0.165,0.27,0.195L25.02,4.98l0.579,2.114c0.03,0.11,0.1,0.206,0.195,0.269
			l1.832,1.204l-0.103,2.189c-0.006,0.114,0.03,0.227,0.102,0.316l1.371,1.711l-0.775,2.051
			C28.181,14.941,28.181,15.059,28.221,15.166z"/>
	</g>
</g>
<g>
	<g>
		<path fill="#FC3C3C" d="M23.826,6.889c-0.117-0.127-0.238-0.254-0.36-0.376c-0.122-0.123-0.249-0.244-0.376-0.361
			c-0.191-0.175-0.488-0.163-0.664,0.028s-0.162,0.488,0.028,0.664c0.118,0.108,0.234,0.22,0.347,0.333
			c0.113,0.113,0.226,0.229,0.334,0.347c0.092,0.101,0.219,0.152,0.346,0.152c0.113,0,0.227-0.041,0.317-0.124
			C23.988,7.377,24.002,7.08,23.826,6.889z"/>
	</g>
</g>
<g>
	<g>
		<path fill="#FC3C3C" d="M21.422,4.871c-2.266-1.443-4.993-2.084-7.68-1.807c-2.726,0.283-5.296,1.507-7.238,3.449
			c-2.137,2.137-3.381,4.976-3.503,7.993c-0.122,3,0.872,5.913,2.798,8.201c0.093,0.11,0.226,0.167,0.359,0.167
			c0.107,0,0.214-0.036,0.302-0.109c0.198-0.168,0.224-0.464,0.057-0.662c-1.774-2.109-2.69-4.793-2.578-7.558
			c0.113-2.781,1.259-5.397,3.229-7.366c1.789-1.79,4.158-2.918,6.67-3.179c2.478-0.256,4.991,0.334,7.077,1.665
			c0.219,0.139,0.51,0.075,0.648-0.144C21.705,5.3,21.641,5.01,21.422,4.871z"/>
	</g>
</g>
<g>
	<g>
		<path fill="#FC3C3C" d="M25.107,8.557c-0.139-0.219-0.43-0.283-0.648-0.144c-0.219,0.139-0.283,0.43-0.143,0.648
			c1.329,2.087,1.92,4.601,1.664,7.078c-0.261,2.513-1.39,4.882-3.18,6.671c-1.969,1.969-4.585,3.115-7.366,3.229
			c-2.764,0.112-5.449-0.804-7.558-2.578c-0.198-0.167-0.495-0.141-0.662,0.057c-0.167,0.199-0.142,0.496,0.057,0.662
			c2.163,1.82,4.884,2.809,7.709,2.809c0.163,0,0.327-0.004,0.491-0.011c3.017-0.122,5.856-1.366,7.993-3.503
			c1.942-1.941,3.167-4.512,3.448-7.238C27.193,13.549,26.551,10.822,25.107,8.557z"/>
	</g>
</g>
</svg>
