<?xml version="1.0" encoding="utf-8"?>
<!-- Generator: Adobe Illustrator 16.0.0, SVG Export Plug-In . SVG Version: 6.00 Build 0)  -->
<!DOCTYPE svg PUBLIC "-//W3C//DTD SVG 1.1//EN" "http://www.w3.org/Graphics/SVG/1.1/DTD/svg11.dtd">
<svg version="1.1" id="Layer_1" xmlns="http://www.w3.org/2000/svg" xmlns:xlink="http://www.w3.org/1999/xlink" x="0px" y="0px"
	 width="30px" height="30px" viewBox="0 0 30 30" enable-background="new 0 0 30 30" xml:space="preserve">
<g>
	<g>
		<path fill="#FC3C3C" d="M26.793,25.601l-3.017-3.877c0.978-0.292,1.821-0.917,2.387-1.768c0.71-1.228,0.389-2.725,0.077-4.173
			c-0.188-0.743-0.3-1.504-0.335-2.271c0.035-0.766,0.147-1.528,0.335-2.272c0.31-1.449,0.633-2.946-0.077-4.171
			c-0.736-1.271-2.217-1.742-3.649-2.196c-0.713-0.196-1.404-0.467-2.061-0.807c-0.597-0.387-1.15-0.835-1.651-1.338
			C17.739,1.742,16.534,0.625,15,0.625c-1.534,0-2.738,1.117-3.802,2.103c-0.501,0.503-1.055,0.952-1.651,1.339
			C8.891,4.406,8.2,4.675,7.487,4.872C6.055,5.326,4.574,5.796,3.838,7.067c-0.71,1.228-0.389,2.727-0.079,4.174
			c0.188,0.744,0.3,1.506,0.335,2.272c-0.035,0.767-0.147,1.528-0.335,2.272c-0.309,1.448-0.632,2.946,0.079,4.171
			c0.565,0.851,1.411,1.476,2.389,1.768l-3.019,3.877c-0.168,0.217-0.129,0.527,0.087,0.696c0.104,0.08,0.235,0.116,0.366,0.101
			l3.544-0.443l0.875,3.062c0.051,0.179,0.199,0.315,0.382,0.351c0.031,0.006,0.063,0.009,0.094,0.009
			c0.153,0,0.298-0.07,0.392-0.191l3.166-4.072c0.779,0.76,1.802,1.216,2.887,1.289c1.085-0.073,2.107-0.529,2.888-1.289
			l3.165,4.071c0.093,0.121,0.238,0.192,0.392,0.192c0.031,0,0.063-0.003,0.094-0.009c0.184-0.035,0.331-0.172,0.382-0.351
			l0.875-3.061l3.545,0.442c0.271,0.034,0.52-0.158,0.554-0.43C26.909,25.837,26.873,25.705,26.793,25.601z M8.764,27.805
			l-0.723-2.531c-0.068-0.234-0.296-0.386-0.538-0.355l-2.776,0.347l2.488-3.198l0.274,0.088c0.712,0.195,1.402,0.466,2.058,0.805
			c0.596,0.387,1.149,0.836,1.651,1.339l0.17,0.157L8.764,27.805z M15,25.409c-1.145,0-2.108-0.892-3.128-1.837
			c-0.556-0.555-1.168-1.049-1.829-1.472c-0.719-0.376-1.475-0.675-2.256-0.892c-1.311-0.416-2.548-0.81-3.091-1.748
			c-0.519-0.896-0.25-2.146,0.033-3.47c0.204-0.812,0.324-1.642,0.358-2.479c-0.033-0.836-0.153-1.667-0.358-2.478
			c-0.284-1.323-0.551-2.573-0.033-3.47c0.545-0.939,1.781-1.332,3.091-1.748c0.781-0.217,1.537-0.516,2.256-0.892
			c0.661-0.423,1.273-0.917,1.829-1.471c1.02-0.946,1.983-1.838,3.128-1.838c1.145,0,2.107,0.892,3.129,1.838
			c0.555,0.554,1.167,1.047,1.828,1.471c0.719,0.376,1.476,0.675,2.257,0.892c1.311,0.416,2.548,0.809,3.092,1.748
			c0.518,0.896,0.25,2.146-0.034,3.47c-0.204,0.812-0.324,1.642-0.357,2.478c0.033,0.836,0.153,1.667,0.357,2.479
			c0.283,1.323,0.552,2.572,0.033,3.47c-0.545,0.938-1.781,1.332-3.091,1.748c-0.782,0.217-1.538,0.516-2.257,0.892
			c-0.66,0.423-1.273,0.917-1.828,1.472C17.107,24.518,16.145,25.409,15,25.409z M22.499,24.918
			c-0.242-0.03-0.471,0.121-0.538,0.355l-0.726,2.531l-2.604-3.35l0.171-0.156c0.501-0.504,1.054-0.953,1.65-1.34
			c0.656-0.339,1.347-0.609,2.06-0.805l0.274-0.088l2.488,3.198L22.499,24.918z"/>
	</g>
</g>
<path fill="none" stroke="#FC3C3C" stroke-miterlimit="10" d="M8.744,10.836H6.445c-0.309,0-0.559,0.25-0.559,0.559v7.819
	c0,0.31,0.25,0.56,0.559,0.56h2.298c0.309,0,0.559-0.25,0.559-0.56v-7.819C9.303,11.086,9.053,10.836,8.744,10.836L8.744,10.836z"/>
<path fill="none" stroke="#FC3C3C" stroke-miterlimit="10" d="M8.744,7.383H6.445c-0.309,0-0.559,0.25-0.559,0.559v1.794
	c0,0.309,0.25,0.559,0.559,0.559h2.298c0.309,0,0.559-0.25,0.559-0.559V7.941C9.303,7.633,9.053,7.383,8.744,7.383L8.744,7.383z"/>
<path fill="none" stroke="#FC3C3C" stroke-miterlimit="10" d="M10.624,8.297v10.561c0,0.506,0.41,0.915,0.915,0.915h7.171v-3.326
	h-4.669v-1.143h4.669v-3.327h-4.669v-1.142h4.794V7.383h-7.296C11.033,7.383,10.624,7.792,10.624,8.297L10.624,8.297z"/>
<path fill="none" stroke="#FC3C3C" stroke-miterlimit="10" d="M21.962,6.916c-1.162,0-2.104,0.879-2.104,1.963
	s0.941,1.963,2.104,1.963s2.104-0.879,2.104-1.963S23.124,6.916,21.962,6.916L21.962,6.916z"/>
<path fill="none" stroke="#FC3C3C" stroke-miterlimit="10" d="M23.213,11.978h-2.502c-0.252,0-0.457,0.205-0.457,0.458v6.881
	c0,0.252,0.205,0.457,0.457,0.457h2.502c0.252,0,0.457-0.205,0.457-0.457v-6.881C23.67,12.183,23.465,11.978,23.213,11.978
	L23.213,11.978z"/>
</svg>
