<?xml version="1.0" encoding="utf-8"?>
<!-- Generator: Adobe Illustrator 16.0.0, SVG Export Plug-In . SVG Version: 6.00 Build 0)  -->
<!DOCTYPE svg PUBLIC "-//W3C//DTD SVG 1.1//EN" "http://www.w3.org/Graphics/SVG/1.1/DTD/svg11.dtd">
<svg version="1.1" id="Слой_1" xmlns="http://www.w3.org/2000/svg" xmlns:xlink="http://www.w3.org/1999/xlink" x="0px" y="0px"
	 width="30px" height="30px" viewBox="0 0 30 30" enable-background="new 0 0 30 30" xml:space="preserve">
<path fill="#FFFFFF" d="M15.602,0.269c-4.778,0-8.666,3.887-8.666,8.666v12.13c0,4.777,3.888,8.666,8.666,8.666
	c4.779,0,8.666-3.889,8.666-8.666V8.935C24.268,4.156,20.381,0.269,15.602,0.269z M22.5,21.065c0,3.804-3.095,6.898-6.898,6.898
	s-6.898-3.095-6.898-6.898V8.935c0-3.804,3.095-6.898,6.898-6.898S22.5,5.131,22.5,8.935V21.065z"/>
<path fill="#FFFFFF" d="M15.602,6.13c-0.488,0-0.884,0.396-0.884,0.884v4.068c0,0.488,0.396,0.884,0.884,0.884
	s0.884-0.396,0.884-0.884V7.014C16.485,6.525,16.09,6.13,15.602,6.13z"/>
</svg>
